<?xml version="1.0" encoding="utf-8"?>
<!-- Generator: Adobe Illustrator 19.2.0, SVG Export Plug-In . SVG Version: 6.00 Build 0)  -->
<svg version="1.0" xmlns="http://www.w3.org/2000/svg" xmlns:xlink="http://www.w3.org/1999/xlink" x="0px" y="0px"
	 viewBox="0 0 366.1 367" style="enable-background:new 0 0 366.1 367;" xml:space="preserve">
<g id="ajrakh_1">
</g>
<g id="ajrakh_2">
	<circle style="fill:none;stroke:#3D62AD;stroke-width:6;stroke-miterlimit:10;" cx="180.7" cy="181.9" r="46.4"/>
	<circle style="fill:none;stroke:#3D62AD;stroke-width:6;stroke-miterlimit:10;" cx="180.7" cy="181.9" r="19.7"/>
	<circle style="fill:#3D62AD;" cx="180.7" cy="181.9" r="9.1"/>
	<circle style="fill:#3D62AD;" cx="180.7" cy="150.6" r="5.3"/>
	
		<ellipse transform="matrix(0.866 -0.5 0.5 0.866 -55.3346 103.0941)" style="fill:#3D62AD;" cx="164.7" cy="154.8" rx="5.3" ry="5.3"/>
	<g>
		
			<ellipse transform="matrix(0.866 -0.5 0.5 0.866 4.4676 63.7721)" style="fill:#2D55A4;" cx="121.2" cy="23.5" rx="5.3" ry="5.3"/>
		<ellipse transform="matrix(0.866 -0.5 0.5 0.866 7.1241 73.686)" style="fill:#2D55A4;" cx="141.1" cy="23.5" rx="5.3" ry="5.3"/>
		
			<ellipse transform="matrix(0.866 -0.5 0.5 0.866 9.7805 83.5999)" style="fill:#2D55A4;" cx="160.9" cy="23.5" rx="5.3" ry="5.3"/>
		
			<ellipse transform="matrix(0.866 -0.5 0.5 0.866 12.4369 93.5138)" style="fill:#2D55A4;" cx="180.7" cy="23.5" rx="5.3" ry="5.3"/>
		
			<ellipse transform="matrix(0.866 -0.5 0.5 0.866 15.0933 103.4277)" style="fill:#2D55A4;" cx="200.5" cy="23.5" rx="5.3" ry="5.3"/>
		
			<ellipse transform="matrix(0.866 -0.5 0.5 0.866 17.7497 113.3416)" style="fill:#2D55A4;" cx="220.4" cy="23.5" rx="5.3" ry="5.3"/>
		
			<ellipse transform="matrix(0.866 -0.5 0.5 0.866 20.4062 123.2555)" style="fill:#2D55A4;" cx="240.2" cy="23.5" rx="5.3" ry="5.3"/>
	</g>
	
		<ellipse transform="matrix(0.9874 -0.158 0.158 0.9874 -52.1084 23.7854)" style="fill:#2D55A4;" cx="123.6" cy="339.7" rx="5.3" ry="5.3"/>
	
		<ellipse transform="matrix(0.866 -0.5 0.5 0.866 -150.6405 117.2161)" style="fill:#2D55A4;" cx="143.4" cy="339.7" rx="5.3" ry="5.3"/>
	
		<ellipse transform="matrix(0.866 -0.5 0.5 0.866 -147.984 127.1301)" style="fill:#2D55A4;" cx="163.2" cy="339.7" rx="5.3" ry="5.3"/>
	
		<ellipse transform="matrix(0.866 -0.5 0.5 0.866 -145.3276 137.044)" style="fill:#2D55A4;" cx="183.1" cy="339.7" rx="5.3" ry="5.3"/>
	
		<ellipse transform="matrix(0.866 -0.5 0.5 0.866 -142.6712 146.9579)" style="fill:#2D55A4;" cx="202.9" cy="339.7" rx="5.3" ry="5.3"/>
	
		<ellipse transform="matrix(0.866 -0.5 0.5 0.866 -139.6178 158.3533)" style="fill:#2D55A4;" cx="225.7" cy="339.7" rx="5.3" ry="5.3"/>
	
		<ellipse transform="matrix(0.866 -0.5 0.5 0.866 -136.5644 169.7487)" style="fill:#2D55A4;" cx="248.5" cy="339.7" rx="5.3" ry="5.3"/>
	<g>
		
			<ellipse transform="matrix(0.2339 -0.9723 0.9723 0.2339 -102.4841 507.1478)" style="fill:#2D55A4;" cx="270.6" cy="318.6" rx="5.3" ry="5.3"/>
		
			<ellipse transform="matrix(0.2339 -0.9723 0.9723 0.2339 -78.0456 509.411)" style="fill:#2D55A4;" cx="284.2" cy="304.2" rx="5.3" ry="5.3"/>
		
			<ellipse transform="matrix(0.2339 -0.9723 0.9723 0.2339 -53.607 511.6742)" style="fill:#2D55A4;" cx="297.9" cy="289.9" rx="5.3" ry="5.3"/>
		
			<ellipse transform="matrix(0.2339 -0.9723 0.9723 0.2339 -29.1684 513.9374)" style="fill:#2D55A4;" cx="311.5" cy="275.5" rx="5.3" ry="5.3"/>
		
			<ellipse transform="matrix(0.2339 -0.9723 0.9723 0.2339 -4.7299 516.2006)" style="fill:#2D55A4;" cx="325.2" cy="261.1" rx="5.3" ry="5.3"/>
	</g>
	<g>
		
			<ellipse transform="matrix(0.9723 -0.2339 0.2339 0.9723 -60.5057 17.0943)" style="fill:#2D55A4;" cx="41.8" cy="263.6" rx="5.3" ry="5.3"/>
		
			<ellipse transform="matrix(0.9723 -0.2339 0.2339 0.9723 -63.4896 20.6872)" style="fill:#2D55A4;" cx="55.5" cy="278" rx="5.3" ry="5.3"/>
		
			<ellipse transform="matrix(0.9723 -0.2339 0.2339 0.9723 -66.4734 24.2802)" style="fill:#2D55A4;" cx="69.1" cy="292.4" rx="5.3" ry="5.3"/>
		
			<ellipse transform="matrix(0.9723 -0.2339 0.2339 0.9723 -69.4573 27.8731)" style="fill:#2D55A4;" cx="82.8" cy="306.8" rx="5.3" ry="5.3"/>
		
			<ellipse transform="matrix(0.9723 -0.2339 0.2339 0.9723 -72.4412 31.466)" style="fill:#2D55A4;" cx="96.4" cy="321.1" rx="5.3" ry="5.3"/>
	</g>
	<g>
		
			<ellipse transform="matrix(0.9723 -0.2339 0.2339 0.9723 -1.9667 63.362)" style="fill:#2D55A4;" cx="266.1" cy="40" rx="5.3" ry="5.3"/>
		
			<ellipse transform="matrix(0.9723 -0.2339 0.2339 0.9723 -4.9505 66.9549)" style="fill:#2D55A4;" cx="279.8" cy="54.3" rx="5.3" ry="5.3"/>
		
			<ellipse transform="matrix(0.9723 -0.2339 0.2339 0.9723 -7.9344 70.5479)" style="fill:#2D55A4;" cx="293.5" cy="68.7" rx="5.3" ry="5.3"/>
		
			<ellipse transform="matrix(0.9723 -0.2339 0.2339 0.9723 -10.9183 74.1408)" style="fill:#2D55A4;" cx="307.1" cy="83.1" rx="5.3" ry="5.3"/>
		
			<ellipse transform="matrix(0.9723 -0.2339 0.2339 0.9723 -13.9021 77.7337)" style="fill:#2D55A4;" cx="320.8" cy="97.5" rx="5.3" ry="5.3"/>
	</g>
	<g>
		
			<ellipse transform="matrix(0.24 -0.9708 0.9708 0.24 -57.4698 115.7006)" style="fill:#2D55A4;" cx="45.2" cy="94.6" rx="5.3" ry="5.3"/>
		
			<ellipse transform="matrix(0.24 -0.9708 0.9708 0.24 -33.1503 118.1826)" style="fill:#2D55A4;" cx="58.9" cy="80.3" rx="5.3" ry="5.3"/>
		
			<ellipse transform="matrix(0.24 -0.9708 0.9708 0.24 -8.8308 120.6647)" style="fill:#2D55A4;" cx="72.6" cy="66" rx="5.3" ry="5.3"/>
		
			<ellipse transform="matrix(0.24 -0.9708 0.9708 0.24 15.4886 123.1467)" style="fill:#2D55A4;" cx="86.4" cy="51.7" rx="5.3" ry="5.3"/>
		
			<ellipse transform="matrix(0.24 -0.9708 0.9708 0.24 39.8081 125.6287)" style="fill:#2D55A4;" cx="100.1" cy="37.4" rx="5.3" ry="5.3"/>
	</g>
	<g>
		
			<ellipse transform="matrix(1 -6.700356e-03 6.700356e-03 1 -0.7994 2.2949)" style="fill:#2D55A4;" cx="342.1" cy="120.5" rx="5.3" ry="5.3"/>
		
			<ellipse transform="matrix(1 -6.700356e-03 6.700356e-03 1 -0.9322 2.2963)" style="fill:#2D55A4;" cx="342.2" cy="140.3" rx="5.3" ry="5.3"/>
		
			<ellipse transform="matrix(1 -6.700356e-03 6.700356e-03 1 -1.0651 2.2976)" style="fill:#2D55A4;" cx="342.4" cy="160.1" rx="5.3" ry="5.3"/>
		
			<ellipse transform="matrix(1 -6.700356e-03 6.700356e-03 1 -1.1979 2.2989)" style="fill:#2D55A4;" cx="342.5" cy="179.9" rx="5.3" ry="5.3"/>
		
			<ellipse transform="matrix(1 -6.700356e-03 6.700356e-03 1 -1.3308 2.3003)" style="fill:#2D55A4;" cx="342.6" cy="199.8" rx="5.3" ry="5.3"/>
		
			<ellipse transform="matrix(1 -6.700356e-03 6.700356e-03 1 -1.4636 2.3016)" style="fill:#2D55A4;" cx="342.8" cy="219.6" rx="5.3" ry="5.3"/>
		
			<ellipse transform="matrix(1 -6.700356e-03 6.700356e-03 1 -1.5965 2.3029)" style="fill:#2D55A4;" cx="342.9" cy="239.4" rx="5.3" ry="5.3"/>
	</g>
	<g>
		
			<ellipse transform="matrix(1 -6.700356e-03 6.700356e-03 1 -0.8313 0.144)" style="fill:#2D55A4;" cx="21.1" cy="124.1" rx="5.3" ry="5.3"/>
		
			<ellipse transform="matrix(1 -6.700356e-03 6.700356e-03 1 -0.9641 0.1454)" style="fill:#2D55A4;" cx="21.2" cy="144" rx="5.3" ry="5.3"/>
		
			<ellipse transform="matrix(1 -6.700356e-03 6.700356e-03 1 -1.0969 0.1467)" style="fill:#2D55A4;" cx="21.3" cy="163.8" rx="5.3" ry="5.3"/>
		
			<ellipse transform="matrix(1 -6.700356e-03 6.700356e-03 1 -1.2298 0.148)" style="fill:#2D55A4;" cx="21.5" cy="183.6" rx="5.3" ry="5.3"/>
		
			<ellipse transform="matrix(1 -6.700356e-03 6.700356e-03 1 -1.3626 0.1494)" style="fill:#2D55A4;" cx="21.6" cy="203.4" rx="5.3" ry="5.3"/>
		
			<ellipse transform="matrix(1 -6.700356e-03 6.700356e-03 1 -1.4955 0.1507)" style="fill:#2D55A4;" cx="21.7" cy="223.3" rx="5.3" ry="5.3"/>
		
			<ellipse transform="matrix(1 -6.700356e-03 6.700356e-03 1 -1.6283 0.152)" style="fill:#2D55A4;" cx="21.9" cy="243.1" rx="5.3" ry="5.3"/>
	</g>
	
		<ellipse transform="matrix(0.5 -0.866 0.866 0.5 -67.6848 215.7238)" style="fill:#3D62AD;" cx="153" cy="166.5" rx="5.3" ry="5.3"/>
	<circle style="fill:#3D62AD;" cx="148.7" cy="182.5" r="5.3"/>
	
		<ellipse transform="matrix(0.866 -0.5 0.5 0.866 -78.7395 103.0409)" style="fill:#3D62AD;" cx="152.9" cy="198.5" rx="5.3" ry="5.3"/>
	
		<ellipse transform="matrix(0.5 -0.866 0.866 0.5 -99.7291 247.6228)" style="fill:#3D62AD;" cx="164.6" cy="210.2" rx="5.3" ry="5.3"/>
	<circle style="fill:#3D62AD;" cx="180.6" cy="214.5" r="5.3"/>
	
		<ellipse transform="matrix(0.866 -0.5 0.5 0.866 -78.7926 126.4458)" style="fill:#3D62AD;" cx="196.6" cy="210.3" rx="5.3" ry="5.3"/>
	
		<ellipse transform="matrix(0.5 -0.866 0.866 0.5 -67.83 279.6671)" style="fill:#3D62AD;" cx="208.3" cy="198.6" rx="5.3" ry="5.3"/>
	<circle style="fill:#3D62AD;" cx="212.6" cy="182.6" r="5.3"/>
	
		<ellipse transform="matrix(0.866 -0.5 0.5 0.866 -55.3877 126.499)" style="fill:#3D62AD;" cx="208.4" cy="166.6" rx="5.3" ry="5.3"/>
	
		<ellipse transform="matrix(0.5 -0.866 0.866 0.5 -35.7857 247.768)" style="fill:#3D62AD;" cx="196.7" cy="154.9" rx="5.3" ry="5.3"/>
	<polygon style="fill:#3D62AD;" points="160.5,139.7 153.8,114.6 166.8,137.5 	"/>
	<polygon style="fill:#3D62AD;" points="139.7,159.4 119.5,143 143.5,154 	"/>
	<polygon style="fill:#3D62AD;" points="134.5,187.6 108.5,186.2 134.4,180.9 	"/>
	<polygon style="fill:#3D62AD;" points="146.8,213.4 125,227.6 142.8,208.1 	"/>
	<polygon style="fill:#3D62AD;" points="172,227.1 162.7,251.4 165.6,225.2 	"/>
	<polygon style="fill:#3D62AD;" points="200.4,223.4 207.1,248.5 194.1,225.6 	"/>
	<polygon style="fill:#3D62AD;" points="221.2,203.7 241.4,220.1 217.4,209.1 	"/>
	<polygon style="fill:#3D62AD;" points="226.4,175.5 252.4,176.9 226.5,182.2 	"/>
	<polygon style="fill:#3D62AD;" points="214.1,149.7 235.9,135.5 218.1,155 	"/>
	<polygon style="fill:#3D62AD;" points="188.9,136 198.3,111.7 195.3,137.9 	"/>
	
		<ellipse transform="matrix(0.9511 -0.309 0.309 0.9511 -72.3838 43.7946)" style="fill:#3D62AD;" cx="102.1" cy="250.4" rx="5.7" ry="5.7"/>
	<path style="fill:#3D62AD;" d="M100.1,259.3c0,0,3.5,6.7,0.1,13.6c-3.4,6.9-15.6,1.7-12.9-5.1c2.7-6.9,9.7-9.9,9.7-9.9
		S99,256.8,100.1,259.3z"/>
	<path style="fill:#3D62AD;" d="M110,255.2c0,0,7.5-1.3,13,4.1c5.5,5.4-3.2,15.4-8.9,10.7c-5.7-4.7-6.4-12.3-6.4-12.3
		S107.3,255.5,110,255.2z"/>
	<path style="fill:#3D62AD;" d="M109.2,244.5c0,0,1.1-7.5,7.9-11.1c6.8-3.6,13.7,7.8,7.5,11.8c-6.2,4-13.7,2.3-13.7,2.3
		S108.6,247.1,109.2,244.5z"/>
	<path style="fill:#3D62AD;" d="M98.8,242c0,0-6.8-3.4-8.1-10.9c-1.3-7.6,11.6-10.6,13.5-3.5c1.9,7.1-2.1,13.7-2.1,13.7
		S101.1,243.4,98.8,242z"/>
	<path style="fill:#3D62AD;" d="M93.2,251.1c0,0-5.3,5.4-12.9,4.3c-7.6-1.1-6.5-14.3,0.9-13.9c7.4,0.4,12.4,6.2,12.4,6.2
		S95.2,249.3,93.2,251.1z"/>
	
		<ellipse transform="matrix(0.5878 -0.809 0.809 0.5878 -164.6198 244.2706)" style="fill:#3D62AD;" cx="157.4" cy="283.7" rx="5.7" ry="5.7"/>
	<path style="fill:#3D62AD;" d="M161,292c0,0,6.8,3.4,8.1,10.9c1.3,7.6-11.6,10.6-13.5,3.5c-1.9-7.1,2.1-13.7,2.1-13.7
		S158.7,290.6,161,292z"/>
	<path style="fill:#3D62AD;" d="M166.6,282.9c0,0,5.3-5.4,12.9-4.3c7.6,1.1,6.5,14.3-0.9,13.9c-7.4-0.4-12.4-6.2-12.4-6.2
		S164.6,284.7,166.6,282.9z"/>
	<path style="fill:#3D62AD;" d="M159.7,274.7c0,0-3.5-6.7-0.1-13.6c3.4-6.9,15.6-1.7,12.9,5.1c-2.7,6.9-9.7,9.9-9.7,9.9
		S160.8,277.2,159.7,274.7z"/>
	<path style="fill:#3D62AD;" d="M149.8,278.8c0,0-7.5,1.3-13-4.1s3.2-15.4,8.9-10.7c5.7,4.7,6.4,12.3,6.4,12.3
		S152.5,278.5,149.8,278.8z"/>
	<path style="fill:#3D62AD;" d="M150.6,289.5c0,0-1.1,7.5-7.9,11.1c-6.8,3.6-13.7-7.8-7.5-11.8c6.2-4,13.7-2.3,13.7-2.3
		S151.2,286.8,150.6,289.5z"/>
	<circle style="fill:#3D62AD;" cx="221.7" cy="278.1" r="5.7"/>
	<path style="fill:#3D62AD;" d="M229.5,282.7c0,0,7.5-1.3,13,4.1c5.5,5.4-3.2,15.4-8.9,10.7c-5.7-4.7-6.4-12.3-6.4-12.3
		S226.9,282.9,229.5,282.7z"/>
	<path style="fill:#3D62AD;" d="M228.7,272c0,0,1.1-7.5,7.9-11.1c6.8-3.6,13.7,7.8,7.5,11.8c-6.2,4-13.7,2.3-13.7,2.3
		S228.1,274.6,228.7,272z"/>
	<path style="fill:#3D62AD;" d="M218.3,269.5c0,0-6.8-3.4-8.1-10.9c-1.3-7.6,11.6-10.6,13.5-3.5c1.9,7.1-2.1,13.7-2.1,13.7
		S220.6,270.8,218.3,269.5z"/>
	<path style="fill:#3D62AD;" d="M212.7,278.6c0,0-5.3,5.4-12.9,4.3s-6.5-14.3,0.9-13.9c7.4,0.4,12.4,6.2,12.4,6.2
		S214.7,276.8,212.7,278.6z"/>
	<path style="fill:#3D62AD;" d="M219.6,286.7c0,0,3.5,6.7,0.1,13.6c-3.4,6.9-15.6,1.7-12.9-5.1c2.7-6.9,9.7-9.9,9.7-9.9
		S218.6,284.3,219.6,286.7z"/>
	
		<ellipse transform="matrix(0.809 -0.5878 0.5878 0.809 -86.9061 203.993)" style="fill:#3D62AD;" cx="270.5" cy="235.7" rx="5.7" ry="5.7"/>
	<path style="fill:#3D62AD;" d="M279.5,234.8c0,0,5.3-5.4,12.9-4.3c7.6,1.1,6.5,14.3-0.9,13.9c-7.4-0.4-12.4-6.2-12.4-6.2
		S277.5,236.6,279.5,234.8z"/>
	<path style="fill:#3D62AD;" d="M272.6,226.7c0,0-3.5-6.7-0.1-13.6c3.4-6.9,15.6-1.7,12.9,5.1s-9.7,9.9-9.7,9.9
		S273.6,229.1,272.6,226.7z"/>
	<path style="fill:#3D62AD;" d="M262.7,230.8c0,0-7.5,1.3-13-4.1c-5.5-5.4,3.2-15.4,8.9-10.7c5.7,4.7,6.4,12.3,6.4,12.3
		S265.3,230.5,262.7,230.8z"/>
	<path style="fill:#3D62AD;" d="M263.5,241.4c0,0-1.1,7.5-7.9,11.1c-6.8,3.6-13.7-7.8-7.5-11.8c6.2-4,13.7-2.3,13.7-2.3
		S264.1,238.8,263.5,241.4z"/>
	<path style="fill:#3D62AD;" d="M273.9,244c0,0,6.8,3.4,8.1,10.9c1.3,7.6-11.6,10.6-13.5,3.5c-1.9-7.1,2.1-13.7,2.1-13.7
		S271.6,242.6,273.9,244z"/>
	
		<ellipse transform="matrix(0.309 -0.9511 0.9511 0.309 32.568 390.4764)" style="fill:#3D62AD;" cx="285" cy="172.8" rx="5.7" ry="5.7"/>
	<path style="fill:#3D62AD;" d="M291.8,166.8c0,0,1.1-7.5,7.9-11.1c6.8-3.6,13.7,7.8,7.5,11.8c-6.2,4-13.7,2.3-13.7,2.3
		S291.2,169.4,291.8,166.8z"/>
	<path style="fill:#3D62AD;" d="M281.4,164.3c0,0-6.8-3.4-8.1-10.9s11.6-10.6,13.5-3.5c1.9,7.1-2.1,13.7-2.1,13.7
		S283.7,165.6,281.4,164.3z"/>
	<path style="fill:#3D62AD;" d="M275.8,173.4c0,0-5.3,5.4-12.9,4.3c-7.6-1.1-6.5-14.3,0.9-13.9s12.4,6.2,12.4,6.2
		S277.8,171.6,275.8,173.4z"/>
	<path style="fill:#3D62AD;" d="M282.7,181.5c0,0,3.5,6.7,0.1,13.6c-3.4,6.9-15.6,1.7-12.9-5.1c2.7-6.9,9.7-9.9,9.7-9.9
		S281.6,179.1,282.7,181.5z"/>
	<path style="fill:#3D62AD;" d="M292.6,177.5c0,0,7.5-1.3,13,4.1c5.5,5.4-3.2,15.4-8.9,10.7c-5.7-4.7-6.4-12.3-6.4-12.3
		S289.9,177.7,292.6,177.5z"/>
	
		<ellipse transform="matrix(0.9511 -0.309 0.309 0.9511 -22.3218 85.8318)" style="fill:#3D62AD;" cx="259.8" cy="113.4" rx="5.7" ry="5.7"/>
	<path style="fill:#3D62AD;" d="M261.7,104.5c0,0-3.5-6.7-0.1-13.6c3.4-6.9,15.6-1.7,12.9,5.1c-2.7,6.9-9.7,9.9-9.7,9.9
		S262.8,107,261.7,104.5z"/>
	<path style="fill:#3D62AD;" d="M251.9,108.6c0,0-7.5,1.3-13-4.1s3.2-15.4,8.9-10.7c5.7,4.7,6.4,12.3,6.4,12.3
		S254.5,108.3,251.9,108.6z"/>
	<path style="fill:#3D62AD;" d="M252.7,119.3c0,0-1.1,7.5-7.9,11.1c-6.8,3.6-13.7-7.8-7.5-11.8c6.2-4,13.7-2.3,13.7-2.3
		S253.2,116.6,252.7,119.3z"/>
	<path style="fill:#3D62AD;" d="M263.1,121.8c0,0,6.8,3.4,8.1,10.9c1.3,7.6-11.6,10.6-13.5,3.5c-1.9-7.1,2.1-13.7,2.1-13.7
		S260.7,120.4,263.1,121.8z"/>
	<path style="fill:#3D62AD;" d="M268.7,112.7c0,0,5.3-5.4,12.9-4.3c7.6,1.1,6.5,14.3-0.9,13.9c-7.4-0.4-12.4-6.2-12.4-6.2
		S266.7,114.5,268.7,112.7z"/>
	
		<ellipse transform="matrix(0.5878 -0.809 0.809 0.5878 19.4746 198.4399)" style="fill:#3D62AD;" cx="204.5" cy="80.1" rx="5.7" ry="5.7"/>
	<path style="fill:#3D62AD;" d="M200.8,71.8c0,0-6.8-3.4-8.1-10.9s11.6-10.6,13.5-3.5s-2.1,13.7-2.1,13.7S203.1,73.2,200.8,71.8z"/>
	<path style="fill:#3D62AD;" d="M195.2,80.9c0,0-5.3,5.4-12.9,4.3s-6.5-14.3,0.9-13.9c7.4,0.4,12.4,6.2,12.4,6.2
		S197.2,79.1,195.2,80.9z"/>
	<path style="fill:#3D62AD;" d="M202.1,89.1c0,0,3.5,6.7,0.1,13.6c-3.4,6.9-15.6,1.7-12.9-5.1c2.7-6.9,9.7-9.9,9.7-9.9
		S201.1,86.6,202.1,89.1z"/>
	<path style="fill:#3D62AD;" d="M212,85c0,0,7.5-1.3,13,4.1c5.5,5.4-3.2,15.4-8.9,10.7c-5.7-4.7-6.4-12.3-6.4-12.3
		S209.4,85.3,212,85z"/>
	<path style="fill:#3D62AD;" d="M211.2,74.3c0,0,1.1-7.5,7.9-11.1s13.7,7.8,7.5,11.8c-6.2,4-13.7,2.3-13.7,2.3
		S210.7,76.9,211.2,74.3z"/>
	<circle style="fill:#3D62AD;" cx="140.1" cy="85.7" r="5.7"/>
	<path style="fill:#3D62AD;" d="M132.3,81.1c0,0-7.5,1.3-13-4.1c-5.5-5.4,3.2-15.4,8.9-10.7s6.4,12.3,6.4,12.3S135,80.9,132.3,81.1z
		"/>
	<path style="fill:#3D62AD;" d="M133.1,91.8c0,0-1.1,7.5-7.9,11.1c-6.8,3.6-13.7-7.8-7.5-11.8s13.7-2.3,13.7-2.3
		S133.7,89.2,133.1,91.8z"/>
	<path style="fill:#3D62AD;" d="M143.5,94.3c0,0,6.8,3.4,8.1,10.9c1.3,7.6-11.6,10.6-13.5,3.5s2.1-13.7,2.1-13.7
		S141.2,93,143.5,94.3z"/>
	<path style="fill:#3D62AD;" d="M149.1,85.2c0,0,5.3-5.4,12.9-4.3c7.6,1.1,6.5,14.3-0.9,13.9c-7.4-0.4-12.4-6.2-12.4-6.2
		S147.1,87,149.1,85.2z"/>
	<path style="fill:#3D62AD;" d="M142.2,77.1c0,0-3.5-6.7-0.1-13.6s15.6-1.7,12.9,5.1s-9.7,9.9-9.7,9.9S143.3,79.5,142.2,77.1z"/>
	
		<ellipse transform="matrix(0.809 -0.5878 0.5878 0.809 -57.8132 78.181)" style="fill:#3D62AD;" cx="91.4" cy="128.1" rx="5.7" ry="5.7"/>
	<path style="fill:#3D62AD;" d="M82.4,128.9c0,0-5.3,5.4-12.9,4.3c-7.6-1.1-6.5-14.3,0.9-13.9c7.4,0.4,12.4,6.2,12.4,6.2
		S84.4,127.2,82.4,128.9z"/>
	<path style="fill:#3D62AD;" d="M89.3,137.1c0,0,3.5,6.7,0.1,13.6c-3.4,6.9-15.6,1.7-12.9-5.1c2.7-6.9,9.7-9.9,9.7-9.9
		S88.2,134.6,89.3,137.1z"/>
	<path style="fill:#3D62AD;" d="M99.2,133c0,0,7.5-1.3,13,4.1c5.5,5.4-3.2,15.4-8.9,10.7c-5.7-4.7-6.4-12.3-6.4-12.3
		S96.5,133.3,99.2,133z"/>
	<path style="fill:#3D62AD;" d="M98.4,122.4c0,0,1.1-7.5,7.9-11.1c6.8-3.6,13.7,7.8,7.5,11.8c-6.2,4-13.7,2.3-13.7,2.3
		S97.8,125,98.4,122.4z"/>
	<path style="fill:#3D62AD;" d="M88,119.8c0,0-6.8-3.4-8.1-10.9c-1.3-7.6,11.6-10.6,13.5-3.5c1.9,7.1-2.1,13.7-2.1,13.7
		S90.3,121.2,88,119.8z"/>
	
		<ellipse transform="matrix(0.309 -0.9511 0.9511 0.309 -128.5099 205.045)" style="fill:#3D62AD;" cx="76.9" cy="191" rx="5.7" ry="5.7"/>
	<path style="fill:#3D62AD;" d="M70.1,197c0,0-1.1,7.5-7.9,11.1s-13.7-7.8-7.5-11.8c6.2-4,13.7-2.3,13.7-2.3S70.7,194.4,70.1,197z"
		/>
	<path style="fill:#3D62AD;" d="M80.5,199.5c0,0,6.8,3.4,8.1,10.9c1.3,7.6-11.6,10.6-13.5,3.5c-1.9-7.1,2.1-13.7,2.1-13.7
		S78.2,198.1,80.5,199.5z"/>
	<path style="fill:#3D62AD;" d="M86.1,190.4c0,0,5.3-5.4,12.9-4.3c7.6,1.1,6.5,14.3-0.9,13.9c-7.4-0.4-12.4-6.2-12.4-6.2
		S84.1,192.2,86.1,190.4z"/>
	<path style="fill:#3D62AD;" d="M79.2,182.2c0,0-3.5-6.7-0.1-13.6s15.6-1.7,12.9,5.1s-9.7,9.9-9.7,9.9S80.2,184.7,79.2,182.2z"/>
	<path style="fill:#3D62AD;" d="M69.3,186.3c0,0-7.5,1.3-13-4.1c-5.5-5.4,3.2-15.4,8.9-10.7s6.4,12.3,6.4,12.3
		S71.9,186.1,69.3,186.3z"/>
	<polygon style="fill:none;stroke:#3D62AD;stroke-width:7;stroke-miterlimit:10;" points="37.3,121.9 121.2,36.6 240.8,35.5 
		326.2,119.4 327.2,239.1 243.3,324.4 123.7,325.4 38.3,241.5 	"/>
	<polygon style="fill:none;stroke:#3D62AD;stroke-width:7;stroke-miterlimit:10;" points="8.7,110.8 109.3,9 253.2,8.1 356.1,108.7 
		357.7,251.8 257.1,353.6 113.2,354.5 10.3,253.9 	"/>
</g>
<g id="ajrakh_3">
</g>
<g id="ajrakh_4">
</g>
</svg>
