<?xml version="1.0" encoding="utf-8"?>
<!-- Generator: Adobe Illustrator 19.2.0, SVG Export Plug-In . SVG Version: 6.00 Build 0)  -->
<svg version="1.0" xmlns="http://www.w3.org/2000/svg" xmlns:xlink="http://www.w3.org/1999/xlink" x="0px" y="0px"
	 viewBox="0 0 366.1 367" style="enable-background:new 0 0 366.1 367;" xml:space="preserve">
<g id="ajrakh_1">
</g>
<g id="ajrakh_2">
</g>
<g id="ajrakh_3">
	<g>
		<g>
			<path style="fill:none;stroke:#3D62AD;stroke-width:3.4524;stroke-linecap:round;stroke-linejoin:round;" d="M257.1,117.1
				c-0.3-0.1-0.5-0.2-0.8-0.3c-0.1-0.3-0.2-0.6-0.3-0.8"/>
			
				<path style="fill:none;stroke:#3D62AD;stroke-width:3.4524;stroke-linecap:round;stroke-linejoin:round;stroke-dasharray:1.9272,9.6359;" d="
				M252,107.2c-5-7.7-13-12.6-25.3-13.7"/>
			<path style="fill:none;stroke:#3D62AD;stroke-width:3.4524;stroke-linecap:round;stroke-linejoin:round;" d="M221.8,93.3
				c-0.3,0-0.6,0-0.9,0c-0.1-0.3-0.1-0.6-0.2-0.8"/>
			
				<path style="fill:none;stroke:#3D62AD;stroke-width:3.4524;stroke-linecap:round;stroke-linejoin:round;stroke-dasharray:1.7151,8.5756;" d="
				M215.9,85.6c-6.8-5.8-18.4-9.1-21.9-10.1c-4.9-1.5-12.5-10.8-12.5-10.8s-1.6-2.1-3,0.3c0,0-6.8,10-11.7,11.5
				c-4.1,1.2-17,6.7-22.1,14.9"/>
			<path style="fill:none;stroke:#3D62AD;stroke-width:3.4524;stroke-linecap:round;stroke-linejoin:round;" d="M143.1,95.2
				c-0.1,0.3-0.1,0.6-0.2,0.8c-0.3,0-0.6,0-0.9,0"/>
			
				<path style="fill:none;stroke:#3D62AD;stroke-width:3.4524;stroke-linecap:round;stroke-linejoin:round;stroke-dasharray:1.9272,9.6359;" d="
				M132.4,96.9c-11.6,2.2-18.7,8.3-22.8,17.3"/>
			<path style="fill:none;stroke:#3D62AD;stroke-width:3.4524;stroke-linecap:round;stroke-linejoin:round;" d="M107.9,118.7
				c-0.1,0.3-0.2,0.5-0.3,0.8c-0.3,0.1-0.5,0.2-0.8,0.3"/>
			
				<path style="fill:none;stroke:#3D62AD;stroke-width:3.4524;stroke-linecap:round;stroke-linejoin:round;stroke-dasharray:1.7232,8.616;" d="
				M98.8,122.9c-7.8,3.4-13.9,8.8-14.6,27.6c0,0-4.1,5.4-7,17.5l0.8,41.9c2.9,12.1,7,17.5,7,17.5c0.9,21.9,8.9,25.7,18.7,29.1"/>
			<path style="fill:none;stroke:#3D62AD;stroke-width:3.4524;stroke-linecap:round;stroke-linejoin:round;" d="M107.7,257.9
				c0.3,0.1,0.5,0.2,0.8,0.3c0.1,0.3,0.2,0.6,0.3,0.8"/>
			
				<path style="fill:none;stroke:#3D62AD;stroke-width:3.4524;stroke-linecap:round;stroke-linejoin:round;stroke-dasharray:1.9272,9.6359;" d="
				M112.8,267.7c5,7.7,13,12.6,25.3,13.7"/>
			<path style="fill:none;stroke:#3D62AD;stroke-width:3.4524;stroke-linecap:round;stroke-linejoin:round;" d="M143,281.6
				c0.3,0,0.6,0,0.9,0c0.1,0.3,0.1,0.6,0.2,0.8"/>
			
				<path style="fill:none;stroke:#3D62AD;stroke-width:3.4524;stroke-linecap:round;stroke-linejoin:round;stroke-dasharray:1.7151,8.5756;" d="
				M148.4,289.8c6,6.3,15.9,10.4,19.4,11.4c4.9,1.5,11.7,11.4,11.7,11.4c1.4,2.4,3,0.3,3,0.3s7.6-9.3,12.4-10.8
				c4.1-1.2,19.1-5.5,24.8-13.3"/>
			<path style="fill:none;stroke:#3D62AD;stroke-width:3.4524;stroke-linecap:round;stroke-linejoin:round;" d="M221.7,285
				c0.1-0.3,0.1-0.6,0.2-0.8c0.3,0,0.6,0,0.9,0"/>
			
				<path style="fill:none;stroke:#3D62AD;stroke-width:3.4524;stroke-linecap:round;stroke-linejoin:round;stroke-dasharray:1.9272,9.6359;" d="
				M232.4,283.2c11.6-2.2,18.7-8.3,22.8-17.3"/>
			<path style="fill:none;stroke:#3D62AD;stroke-width:3.4524;stroke-linecap:round;stroke-linejoin:round;" d="M256.9,261.4
				c0.1-0.3,0.2-0.5,0.3-0.8c0.3-0.1,0.5-0.2,0.8-0.3"/>
			
				<path style="fill:none;stroke:#3D62AD;stroke-width:3.4524;stroke-linecap:round;stroke-linejoin:round;stroke-dasharray:1.6806,8.4032;" d="
				M265.9,257.4c7.9-3.3,14.1-8.7,14.8-27.7c0,0,4.3-6.3,8-16.7l-0.8-48.9c-3.7-10.3-8-16.6-8-16.6c-0.9-22-9-25.7-18.8-29.1"/>
		</g>
	</g>
	<path style="fill:none;stroke:#3D62AD;stroke-width:4.0914;stroke-miterlimit:10;" d="M318.5,190c0.4,26.4,0.5,52.1-0.6,68.5
		c-5.2,39.2-42.3,32.9-42.3,32.9c-2.2,15.8-18.9,32.1-47,26c-6.6,11.4-29,17.6-29,17.6c-6.7,0.8-12.7,5.9-16.4,9.7
		c-1.7,1.7-4.5,1.7-6-0.2c-2.5-3.2-7.6-7.4-18.5-11.2c-21.6-5.3-28-18.1-28-18.1c-18.5,5.3-37.6-7.9-45.5-25.7
		c-11.1,0.5-19.9-4.1-26.4-10c-10.3-9.3-15.8-22.8-15.8-36.6l0-56.3l-0.1-61.1c0-8.4,2.4-16.7,7.1-23.6c6.6-9.7,18-20.9,35-20.2
		c7.9-17.8,27-31,45.5-25.8c0,0,6.4-12.9,28-18.2c10.8-3.8,16-8.1,18.4-11.2c1.5-1.9,4.3-2,6-0.2c3.7,3.8,9.8,8.9,16.5,9.6
		c0,0,22.4,6.1,29.1,17.6c28.2-6.2,44.9,10.1,47.1,25.9c0,0,37.4-6.2,42.7,32.9C319.2,128.9,318.5,190,318.5,190z"/>
	
		<path style="fill:none;stroke:#3D62AD;stroke-width:3.4524;stroke-linecap:round;stroke-linejoin:round;stroke-miterlimit:10;stroke-dasharray:1.7262,8.631;" d="
		M328,189.7c0.4,28,0.5,55.4-0.6,72.9c-5.6,41.6-44.9,35-44.9,35c-2.3,16.8-20.1,34.2-50,27.7c-7,12.2-30.9,18.8-30.9,18.8
		c-7.1,0.9-13.5,6.2-17.5,10.3c-1.8,1.9-4.8,1.8-6.4-0.2c-2.6-3.4-8.1-7.9-19.6-11.9c-22.9-5.6-29.8-19.3-29.8-19.3
		c-19.6,5.6-40-8.4-48.4-27.3c-11.8,0.5-21.1-4.3-28.1-10.7C40.9,275.1,35,260.8,35,246.1l0-59.8l-0.1-64.9c0-8.9,2.5-17.7,7.6-25.1
		c7-10.3,19.1-22.3,37.3-21.5c8.4-18.9,28.7-33,48.4-27.4c0,0,6.8-13.7,29.7-19.3c11.5-4,17-8.6,19.6-11.9c1.6-2,4.6-2.1,6.4-0.3
		c3.9,4.1,10.4,9.4,17.5,10.3c0,0,23.9,6.5,30.9,18.7c29.9-6.6,47.7,10.7,50.1,27.5c0,0,39.8-6.6,45.4,35
		C328.8,124.7,328,189.7,328,189.7z"/>
	<path style="fill:none;stroke:#3D62AD;stroke-width:4.0914;stroke-miterlimit:10;" d="M336.5,189.2c0.4,29.7,0.5,58.7-0.6,77.2
		c-5.9,44.1-47.6,37.1-47.6,37.1c-2.5,17.8-21.3,36.2-53,29.3c-7.4,12.9-32.7,19.9-32.7,19.9c-7.5,0.9-14.3,6.6-18.5,10.9
		c-1.9,2-5.1,1.9-6.8-0.3c-2.8-3.6-8.6-8.4-20.8-12.6c-24.3-5.9-31.5-20.4-31.5-20.4c-20.8,6-42.3-8.9-51.3-28.9
		c-12.5,0.6-22.4-4.6-29.7-11.3c-11.6-10.5-17.8-25.6-17.8-41.2l0-63.4L26,116.8c0-9.5,2.7-18.8,8-26.6
		c7.4-10.9,20.2-23.6,39.5-22.8c8.9-20.1,30.4-34.9,51.2-29c0,0,7.2-14.5,31.5-20.5c12.2-4.3,18-9.1,20.8-12.6
		c1.7-2.2,4.9-2.2,6.8-0.3c4.2,4.3,11,10,18.5,10.9c0,0,25.3,6.9,32.7,19.8c31.7-7,50.6,11.3,53.1,29.2c0,0,42.1-7,48.1,37.1
		C337.3,120.4,336.5,189.2,336.5,189.2z"/>
	<g>
		<g>
			<path style="fill:none;stroke:#3D62AD;stroke-width:3.5978;stroke-linecap:round;stroke-linejoin:round;" d="M102.8,111.7
				c0.3-0.1,0.6-0.2,0.8-0.3c0.1-0.3,0.2-0.6,0.3-0.9"/>
			
				<path style="fill:none;stroke:#3D62AD;stroke-width:3.5978;stroke-linecap:round;stroke-linejoin:round;stroke-dasharray:2.0083,10.0416;" d="
				M108.1,101.5c5.2-8.1,13.5-13.1,26.3-14.3"/>
			<path style="fill:none;stroke:#3D62AD;stroke-width:3.5978;stroke-linecap:round;stroke-linejoin:round;" d="M139.4,86.9
				c0.3,0,0.6,0,0.9,0c0.1-0.3,0.1-0.6,0.2-0.9"/>
			
				<path style="fill:none;stroke:#3D62AD;stroke-width:3.5978;stroke-linecap:round;stroke-linejoin:round;stroke-dasharray:1.7874,8.937;" d="
				M145.1,78.4c6.2-6.5,16.6-10.9,20.2-12c5.1-1.5,12.2-11.9,12.2-11.9c1.4-2.5,3.1-0.3,3.1-0.3s7.9,9.7,13,11.2
				c4.3,1.3,19.9,5.7,25.9,13.8"/>
			<path style="fill:none;stroke:#3D62AD;stroke-width:3.5978;stroke-linecap:round;stroke-linejoin:round;" d="M221.5,83.2
				c0.1,0.3,0.1,0.6,0.2,0.9c0.3,0,0.6,0,0.9,0"/>
			
				<path style="fill:none;stroke:#3D62AD;stroke-width:3.5978;stroke-linecap:round;stroke-linejoin:round;stroke-dasharray:2.0083,10.0416;" d="
				M232.6,85c12.1,2.3,19.5,8.6,23.8,18"/>
			<path style="fill:none;stroke:#3D62AD;stroke-width:3.5978;stroke-linecap:round;stroke-linejoin:round;" d="M258.2,107.6
				c0.1,0.3,0.2,0.6,0.3,0.9c0.3,0.1,0.6,0.2,0.8,0.3"/>
			
				<path style="fill:none;stroke:#3D62AD;stroke-width:3.5978;stroke-linecap:round;stroke-linejoin:round;stroke-dasharray:1.7506,8.7532;" d="
				M267.6,111.8c8.3,3.5,14.7,9.1,15.5,28.8c0,0,13.5,19.7,13.8,47c0.3,27.7-11.9,48.4-11.9,48.4c-0.9,22.9-9.3,26.8-19.5,30.4"/>
			<path style="fill:none;stroke:#3D62AD;stroke-width:3.5978;stroke-linecap:round;stroke-linejoin:round;" d="M261.3,267.9
				c-0.3,0.1-0.6,0.2-0.8,0.3c-0.1,0.3-0.2,0.6-0.3,0.9"/>
			
				<path style="fill:none;stroke:#3D62AD;stroke-width:3.5978;stroke-linecap:round;stroke-linejoin:round;stroke-dasharray:2.0083,10.0416;" d="
				M256,278.1c-5.2,8.1-13.5,13.1-26.3,14.3"/>
			<path style="fill:none;stroke:#3D62AD;stroke-width:3.5978;stroke-linecap:round;stroke-linejoin:round;" d="M224.6,292.7
				c-0.3,0-0.6,0-0.9,0c-0.1,0.3-0.1,0.6-0.2,0.9"/>
			
				<path style="fill:none;stroke:#3D62AD;stroke-width:3.5978;stroke-linecap:round;stroke-linejoin:round;stroke-dasharray:1.7874,8.937;" d="
				M218.5,300.8c-7.1,6.1-19.1,9.5-22.8,10.6c-5.1,1.5-13,11.3-13,11.3s-1.7,2.2-3.1-0.3c0,0-7.1-10.4-12.2-11.9
				c-4.3-1.3-17.7-6.9-23-15.4"/>
			<path style="fill:none;stroke:#3D62AD;stroke-width:3.5978;stroke-linecap:round;stroke-linejoin:round;" d="M142.5,291
				c-0.1-0.3-0.1-0.6-0.2-0.9c-0.3,0-0.6,0-0.9,0"/>
			
				<path style="fill:none;stroke:#3D62AD;stroke-width:3.5978;stroke-linecap:round;stroke-linejoin:round;stroke-dasharray:2.0083,10.0416;" d="
				M131.5,289.2c-12.1-2.3-19.5-8.6-23.8-18"/>
			<path style="fill:none;stroke:#3D62AD;stroke-width:3.5978;stroke-linecap:round;stroke-linejoin:round;" d="M105.8,266.5
				c-0.1-0.3-0.2-0.6-0.3-0.9c-0.3-0.1-0.6-0.2-0.8-0.3"/>
			
				<path style="fill:none;stroke:#3D62AD;stroke-width:3.5978;stroke-linecap:round;stroke-linejoin:round;stroke-dasharray:1.8611,9.3057;" d="
				M96,262.1c-7.2-3.1-12.9-8.1-14.6-23"/>
			<path style="fill:none;stroke:#3D62AD;stroke-width:3.5978;stroke-linecap:round;stroke-linejoin:round;" d="M81.1,234.4
				c0-0.3,0-0.6,0-0.9c0,0-0.2-0.2-0.6-0.7"/>
			
				<path style="fill:none;stroke:#3D62AD;stroke-width:3.5978;stroke-linecap:round;stroke-linejoin:round;stroke-dasharray:1.7776,8.8882;" d="
				M75.8,225.3c-3.1-6.8-6.5-18.3-6.7-36.5c-0.2-31.7,10.1-45.2,10.1-45.2c0.8-22.8,9.3-26.8,19.4-30.4"/>
		</g>
	</g>
	<path style="fill:none;stroke:#3D62AD;stroke-width:3.9301;stroke-miterlimit:10;" d="M57.5,175.2c-13.4-24,11.1-37.5,11.1-37.5
		c1.1-29.1,13.4-30.2,26.8-35.2c5-16.8,16.7-26.9,40.2-26.9c2.2-12.3,21.8-20.7,27.4-22.4c5.6-1.7,13.3-13.1,13.3-13.1
		c1.6-2.7,3.4-0.3,3.4-0.3s8.6,10.7,14.2,12.3s28.6,8.1,30.8,20.4c23.5,0,35.2,10,40.3,26.8c13.4,5,25.7,6.1,26.9,35.2
		c0,0,24.5,14.6,11.1,38.6c5.9,4.4,9.5,17.9,1,25.4c13.4,24-10.1,40.5-10.1,40.5c-1.1,29.1-13.4,30.2-26.8,35.2
		c-5,16.8-16.7,26.9-40.2,26.9c-2.2,12.3-25.2,18.8-30.8,20.5c-5.6,1.7-14.2,12.4-14.2,12.4s-1.9,2.4-3.4-0.3
		c0,0-7.8-11.4-13.4-13.1c-5.6-1.7-25.2-10-27.4-22.3c-23.5,0-35.2-10-40.3-26.8c-13.4-5-25.7-6.1-26.9-35.2
		c0,0-24.6-13.4-11.2-37.4C59.4,198.8,48.3,187.4,57.5,175.2z"/>
	<path style="fill:none;stroke:#3D62AD;stroke-width:3.0797;stroke-miterlimit:10;" d="M86.5,180.2c-10.5-18.8,8.7-29.4,8.7-29.4
		c0.8-22.8,10.5-23.7,21-27.6c3.9-13.1,13.1-21,31.5-21.1c1.7-9.6,17.1-16.2,21.4-17.5c4.4-1.3,10.4-10.3,10.4-10.3
		c1.2-2.1,2.7-0.3,2.7-0.3s6.8,8.3,11.2,9.7c4.4,1.3,22.4,6.4,24.1,16c18.4,0,27.6,7.8,31.6,21c10.5,3.9,20.2,4.8,21.1,27.6
		c0,0,19.2,11.4,8.7,30.3c4.6,3.4,7.4,14,0.8,19.9c10.5,18.8-7.9,31.7-7.9,31.7c-0.8,22.8-10.5,23.7-21,27.6
		c-3.9,13.1-13.1,21-31.5,21.1c-1.7,9.6-19.7,14.7-24.1,16.1c-4.4,1.3-11.1,9.7-11.1,9.7s-1.5,1.9-2.7-0.3c0,0-6.1-8.9-10.5-10.2
		c-4.4-1.3-19.7-7.9-21.5-17.5c-18.4,0-27.6-7.8-31.6-21c-10.5-3.9-20.2-4.8-21.1-27.6c0,0-19.3-10.5-8.8-29.3
		C88,198.7,79.3,189.8,86.5,180.2z"/>
	<path style="fill:none;stroke:#3D62AD;stroke-width:2.6983;stroke-miterlimit:10;" d="M166.6,167.3c0,0-33.2-6.6-37.1-33.1
		c-3.4,0.5-10.1,10.7-10.1,10.7s-5.9-4.1-7-6.6c-0.4,1.9-1.1,7.8-1.3,10.7c-2,0.6-11.6,2.4-11.6,2.4s6.6,7.1,8.5,8.5
		c1.7,1.2-3.7,4.2-4.1,12.3c1.8-0.2,8.5-4.1,12.6-3.9c-0.9,2.5-0.7,11.6,4,15.7c7-6.2,1.1-16.2,45.9-14.7
		C166.5,168.2,166.6,167.3,166.6,167.3z"/>
	<polyline style="fill:none;stroke:#3D62AD;stroke-width:2.6983;stroke-miterlimit:10;" points="119.4,145 121.8,149.3 121.4,154.7 
		115,153.7 110.1,155.7 113.4,159.4 120.7,160.3 120.1,165.8 116.5,168.4 	"/>
	<polyline style="fill:none;stroke:#3D62AD;stroke-width:2.6983;stroke-miterlimit:10;" points="121.4,154.8 127.3,151.1 
		134.8,156.8 134.7,161.4 126.7,166.1 120.7,160.4 	"/>
	<path style="fill:none;stroke:#3D62AD;stroke-width:2.6983;stroke-miterlimit:10;" d="M198.7,170.3c0,0,33.1-6.7,37-33.2
		c3.4,0.5,10.2,10.7,10.2,10.7s5.9-4.1,7-6.6c0.4,1.9,1.1,7.8,1.3,10.7c2,0.6,11.6,2.4,11.6,2.4s-6.6,7.1-8.5,8.5
		c-1.7,1.2,3.7,4.2,4.1,12.3c-1.8-0.2-8.5-4.1-12.6-3.9c0.9,2.5,0.7,11.6-3.9,15.7c-7-6.2-1.2-16.2-46-14.6
		C198.8,171.2,198.7,170.3,198.7,170.3z"/>
	<polyline style="fill:none;stroke:#3D62AD;stroke-width:2.6983;stroke-miterlimit:10;" points="245.8,147.8 243.4,152.2 
		243.8,157.6 250.2,156.6 255.2,158.6 251.8,162.3 244.5,163.2 245.2,168.6 248.8,171.2 	"/>
	<polyline style="fill:none;stroke:#3D62AD;stroke-width:2.6983;stroke-miterlimit:10;" points="243.9,157.6 237.9,154 230.5,159.7 
		230.6,164.4 238.6,169 244.6,163.2 	"/>
	<path style="fill:none;stroke:#3D62AD;stroke-width:2.6983;stroke-miterlimit:10;" d="M185.4,157.7c0,0-0.3-33.8,24.8-43.1
		c-1.2-3.3-12.6-7.7-12.6-7.7s2.8-6.6,5-8.2c-1.9,0-7.9,0.5-10.7,0.9c-1-1.9-4.7-10.8-4.7-10.8s-5.6,7.9-6.6,10.1
		c-0.8,1.9-4.9-2.7-12.9-1.5c0.6,1.7,5.8,7.4,6.4,11.5c-2.6-0.4-11.5,1.7-14.6,7.1c7.5,5.6,16.1-2.2,23.8,42
		C184.6,157.8,185.4,157.7,185.4,157.7z"/>
	<polyline style="fill:none;stroke:#3D62AD;stroke-width:2.6983;stroke-miterlimit:10;" points="197.7,106.9 193.9,110.2 
		188.5,110.9 188.3,104.5 185.3,100 182.4,104.1 182.9,111.4 177.5,111.9 174.2,108.9 	"/>
	<polyline style="fill:none;stroke:#3D62AD;stroke-width:2.6983;stroke-miterlimit:10;" points="188.5,110.9 193.3,116 189.3,124.4 
		184.7,125.3 178.5,118.4 182.9,111.4 	"/>
	<path style="fill:none;stroke:#3D62AD;stroke-width:2.6983;stroke-miterlimit:10;" d="M200.6,211.1c0,0,33.2,6.6,37.1,33.1
		c3.4-0.5,10.1-10.7,10.1-10.7s5.9,4.1,7,6.6c0.4-1.9,1.1-7.8,1.3-10.7c2-0.6,11.6-2.4,11.6-2.4s-6.6-7.1-8.5-8.5
		c-1.7-1.2,3.7-4.2,4.1-12.3c-1.8,0.2-8.5,4.1-12.6,3.9c0.9-2.5,0.7-11.6-4-15.7c-7,6.2-1.1,16.2-45.9,14.7
		C200.7,210.3,200.6,211.1,200.6,211.1z"/>
	<polyline style="fill:none;stroke:#3D62AD;stroke-width:2.6983;stroke-miterlimit:10;" points="247.8,233.5 245.4,229.2 
		245.8,223.7 252.2,224.8 257.1,222.8 253.7,219.1 246.4,218.2 247.1,212.7 250.7,210.1 	"/>
	<polyline style="fill:none;stroke:#3D62AD;stroke-width:2.6983;stroke-miterlimit:10;" points="245.8,223.7 239.9,227.3 
		232.4,221.7 232.5,217 240.5,212.4 246.5,218.1 	"/>
	<path style="fill:none;stroke:#3D62AD;stroke-width:2.6983;stroke-miterlimit:10;" d="M168.5,208.1c0,0-33.1,6.7-37,33.2
		c-3.4-0.5-10.2-10.7-10.2-10.7s-5.9,4.1-7,6.6c-0.4-1.9-1.1-7.8-1.3-10.7c-2-0.6-11.6-2.4-11.6-2.4s6.6-7.1,8.5-8.5
		c1.7-1.2-3.7-4.2-4.1-12.3c1.8,0.2,8.5,4.1,12.6,3.9c-0.9-2.5-0.7-11.6,3.9-15.7c7,6.2,1.2,16.2,46,14.6
		C168.4,207.3,168.5,208.1,168.5,208.1z"/>
	<polyline style="fill:none;stroke:#3D62AD;stroke-width:2.6983;stroke-miterlimit:10;" points="121.3,230.6 123.7,226.3 
		123.3,220.9 117,221.9 112,219.9 115.4,216.2 122.7,215.3 122,209.8 118.4,207.3 	"/>
	<polyline style="fill:none;stroke:#3D62AD;stroke-width:2.6983;stroke-miterlimit:10;" points="123.3,220.8 129.2,224.4 
		136.7,218.8 136.6,214.1 128.6,209.5 122.6,215.2 	"/>
	<path style="fill:none;stroke:#3D62AD;stroke-width:2.6983;stroke-miterlimit:10;" d="M181.8,220.7c0,0,0.3,33.8-24.8,43.1
		c1.2,3.3,12.6,7.7,12.6,7.7s-2.8,6.6-5,8.2c1.9,0,7.9-0.5,10.7-0.9c1,1.9,4.7,10.8,4.7,10.8s5.6-7.9,6.6-10.1
		c0.8-1.9,4.9,2.7,12.9,1.5c-0.6-1.7-5.8-7.4-6.4-11.5c2.6,0.4,11.5-1.7,14.6-7.1c-7.5-5.6-16.1,2.2-23.8-42
		C182.6,220.7,181.8,220.7,181.8,220.7z"/>
	<polyline style="fill:none;stroke:#3D62AD;stroke-width:2.6983;stroke-miterlimit:10;" points="169.5,271.5 173.2,268.3 
		178.7,267.6 178.9,274 181.9,278.4 184.8,274.4 184.2,267.1 189.7,266.6 193,269.6 	"/>
	<polyline style="fill:none;stroke:#3D62AD;stroke-width:2.6983;stroke-miterlimit:10;" points="178.7,267.6 173.9,262.5 177.9,254 
		182.5,253.2 188.7,260.1 184.3,267.1 	"/>
	
		<ellipse transform="matrix(0.9994 -3.332774e-02 3.332774e-02 0.9994 -6.1113 6.1807)" style="fill:#3D62AD;" cx="182.3" cy="186.4" rx="3.3" ry="3.3"/>
	<path style="fill:#3D62AD;" d="M179.9,190.9c0,0,0.9,4.2-2.1,7.4c-2.9,3.2-8.8-1.5-6.2-4.8c2.6-3.3,6.8-3.8,6.8-3.8
		S179.7,189.4,179.9,190.9z"/>
	<path style="fill:#3D62AD;" d="M185.9,190.3c0,0,4.3,0.5,6.4,4.3c2.2,3.8-4.2,7.9-6.5,4.4s-1.5-7.7-1.5-7.7S184.4,190,185.9,190.3z
		"/>
	<path style="fill:#3D62AD;" d="M187.2,184.3c0,0,1.8-3.9,6-4.8c4.3-0.9,6.2,6.4,2.2,7.6c-4,1.2-7.8-0.9-7.8-0.9
		S186.4,185.7,187.2,184.3z"/>
	<path style="fill:#3D62AD;" d="M181.9,181.3c0,0-3.2-2.9-2.7-7.2s8-3.9,7.9,0.2s-3.3,7.1-3.3,7.1S182.9,182.4,181.9,181.3z"/>
	<path style="fill:#3D62AD;" d="M177.4,185.4c0,0-3.7,2.1-7.7,0.3s-1.3-8.8,2.7-7.4c3.9,1.4,5.8,5.3,5.8,5.3
		S178.8,184.7,177.4,185.4z"/>
	
		<ellipse transform="matrix(0.9994 -3.332774e-02 3.332774e-02 0.9994 -3.7929 7.6232)" style="fill:#3D62AD;" cx="226.8" cy="117.6" rx="2.3" ry="2.3"/>
	<path style="fill:#3D62AD;" d="M225.1,120.7c0,0,0.6,2.9-1.4,5.2s-6.1-1-4.3-3.3s4.7-2.7,4.7-2.7S224.9,119.7,225.1,120.7z"/>
	<path style="fill:#3D62AD;" d="M229.3,120.3c0,0,3,0.3,4.5,3c1.5,2.6-2.9,5.5-4.5,3.1s-1.1-5.3-1.1-5.3S228.2,120.1,229.3,120.3z"
		/>
	<path style="fill:#3D62AD;" d="M230.1,116.1c0,0,1.2-2.7,4.2-3.3c3-0.6,4.3,4.4,1.5,5.3c-2.8,0.8-5.4-0.6-5.4-0.6
		S229.6,117.1,230.1,116.1z"/>
	<path style="fill:#3D62AD;" d="M226.5,114.1c0,0-2.2-2-1.9-5c0.3-3,5.5-2.7,5.5,0.2c-0.1,2.9-2.3,4.9-2.3,4.9
		S227.2,114.8,226.5,114.1z"/>
	<path style="fill:#3D62AD;" d="M223.3,116.9c0,0-2.6,1.5-5.3,0.2c-2.8-1.2-0.9-6.1,1.8-5.2c2.7,1,4,3.7,4,3.7
		S224.3,116.4,223.3,116.9z"/>
	
		<ellipse transform="matrix(0.9994 -3.332774e-02 3.332774e-02 0.9994 -3.8993 4.6321)" style="fill:#3D62AD;" cx="137" cy="119.3" rx="2.3" ry="2.3"/>
	<path style="fill:#3D62AD;" d="M135.3,122.4c0,0,0.6,2.9-1.4,5.2s-6.1-1-4.3-3.3s4.7-2.7,4.7-2.7S135.2,121.4,135.3,122.4z"/>
	<path style="fill:#3D62AD;" d="M139.5,122c0,0,3,0.3,4.5,3s-2.9,5.5-4.5,3.1s-1.1-5.3-1.1-5.3S138.4,121.8,139.5,122z"/>
	<path style="fill:#3D62AD;" d="M140.3,117.8c0,0,1.2-2.7,4.2-3.3c3-0.6,4.3,4.4,1.5,5.3c-2.8,0.8-5.4-0.6-5.4-0.6
		S139.8,118.8,140.3,117.8z"/>
	<path style="fill:#3D62AD;" d="M136.7,115.8c0,0-2.2-2-1.9-5c0.3-3,5.5-2.7,5.5,0.2s-2.3,4.9-2.3,4.9S137.4,116.5,136.7,115.8z"/>
	<path style="fill:#3D62AD;" d="M133.6,118.6c0,0-2.6,1.5-5.3,0.2c-2.8-1.2-0.9-6.1,1.8-5.2s4,3.7,4,3.7S134.5,118.1,133.6,118.6z"
		/>
	
		<ellipse transform="matrix(0.9994 -3.332774e-02 3.332774e-02 0.9994 -6.2276 3.4935)" style="fill:#3D62AD;" cx="101.7" cy="188.6" rx="2.3" ry="2.3"/>
	<path style="fill:#3D62AD;" d="M100,191.7c0,0,0.6,2.9-1.4,5.2c-2,2.2-6.1-1-4.3-3.3s4.7-2.7,4.7-2.7S99.8,190.6,100,191.7z"/>
	<path style="fill:#3D62AD;" d="M104.2,191.2c0,0,3,0.3,4.5,3c1.5,2.6-2.9,5.5-4.5,3.1c-1.6-2.4-1.1-5.3-1.1-5.3
		S103.1,191,104.2,191.2z"/>
	<path style="fill:#3D62AD;" d="M105,187.1c0,0,1.2-2.7,4.2-3.3s4.3,4.4,1.5,5.3c-2.8,0.8-5.4-0.6-5.4-0.6S104.5,188,105,187.1z"/>
	<path style="fill:#3D62AD;" d="M101.4,185c0,0-2.2-2-1.9-5s5.5-2.7,5.5,0.2s-2.3,4.9-2.3,4.9S102.1,185.8,101.4,185z"/>
	<path style="fill:#3D62AD;" d="M98.3,187.9c0,0-2.6,1.5-5.3,0.2c-2.8-1.2-0.9-6.1,1.8-5.2c2.7,1,4,3.7,4,3.7S99.2,187.4,98.3,187.9
		z"/>
	
		<ellipse transform="matrix(0.9994 -3.332774e-02 3.332774e-02 0.9994 -8.5559 4.7156)" style="fill:#3D62AD;" cx="137.2" cy="259" rx="2.3" ry="2.3"/>
	<path style="fill:#3D62AD;" d="M135.5,262.1c0,0,0.6,2.9-1.4,5.2s-6.1-1-4.3-3.3c1.8-2.3,4.7-2.7,4.7-2.7S135.3,261.1,135.5,262.1z
		"/>
	<path style="fill:#3D62AD;" d="M139.7,261.7c0,0,3,0.3,4.5,3c1.5,2.6-2.9,5.5-4.5,3.1s-1.1-5.3-1.1-5.3S138.6,261.5,139.7,261.7z"
		/>
	<path style="fill:#3D62AD;" d="M140.5,257.6c0,0,1.2-2.7,4.2-3.3c3-0.6,4.3,4.4,1.5,5.3c-2.8,0.8-5.4-0.6-5.4-0.6
		S140,258.5,140.5,257.6z"/>
	<path style="fill:#3D62AD;" d="M136.9,255.5c0,0-2.2-2-1.9-5c0.3-3,5.5-2.7,5.5,0.2s-2.3,4.9-2.3,4.9S137.6,256.2,136.9,255.5z"/>
	<path style="fill:#3D62AD;" d="M133.7,258.3c0,0-2.6,1.5-5.3,0.2c-2.8-1.2-0.9-6.1,1.8-5.2c2.7,1,4,3.7,4,3.7
		S134.7,257.9,133.7,258.3z"/>
	
		<ellipse transform="matrix(0.9994 -3.332774e-02 3.332774e-02 0.9994 -8.5133 7.6762)" style="fill:#3D62AD;" cx="226" cy="259.2" rx="2.3" ry="2.3"/>
	<path style="fill:#3D62AD;" d="M224.3,262.3c0,0,0.6,2.9-1.4,5.2s-6.1-1-4.3-3.3c1.8-2.3,4.7-2.7,4.7-2.7S224.2,261.3,224.3,262.3z
		"/>
	<path style="fill:#3D62AD;" d="M228.5,261.9c0,0,3,0.3,4.5,3c1.5,2.6-2.9,5.5-4.5,3.1s-1.1-5.3-1.1-5.3S227.4,261.7,228.5,261.9z"
		/>
	<path style="fill:#3D62AD;" d="M229.3,257.8c0,0,1.2-2.7,4.2-3.3c3-0.6,4.3,4.4,1.5,5.3c-2.8,0.8-5.4-0.6-5.4-0.6
		S228.8,258.7,229.3,257.8z"/>
	<path style="fill:#3D62AD;" d="M225.7,255.7c0,0-2.2-2-1.9-5c0.3-3,5.5-2.7,5.5,0.2s-2.3,4.9-2.3,4.9S226.4,256.4,225.7,255.7z"/>
	<path style="fill:#3D62AD;" d="M222.6,258.5c0,0-2.6,1.5-5.3,0.2s-0.9-6.1,1.8-5.2c2.7,1,4,3.7,4,3.7S223.5,258.1,222.6,258.5z"/>
	
		<ellipse transform="matrix(0.9994 -3.332774e-02 3.332774e-02 0.9994 -6.2346 8.9843)" style="fill:#3D62AD;" cx="266.4" cy="191.5" rx="2.3" ry="2.3"/>
	<path style="fill:#3D62AD;" d="M264.7,194.6c0,0,0.6,2.9-1.4,5.2s-6.1-1-4.3-3.3s4.7-2.7,4.7-2.7S264.5,193.6,264.7,194.6z"/>
	<path style="fill:#3D62AD;" d="M268.9,194.2c0,0,3,0.3,4.5,3c1.5,2.6-2.9,5.5-4.5,3.1s-1.1-5.3-1.1-5.3S267.8,194,268.9,194.2z"/>
	<path style="fill:#3D62AD;" d="M269.7,190.1c0,0,1.2-2.7,4.2-3.3s4.3,4.4,1.5,5.3c-2.8,0.8-5.4-0.6-5.4-0.6S269.2,191,269.7,190.1z
		"/>
	<path style="fill:#3D62AD;" d="M266.1,188c0,0-2.2-2-1.9-5s5.5-2.7,5.5,0.2c-0.1,2.9-2.3,4.9-2.3,4.9S266.8,188.7,266.1,188z"/>
	<path style="fill:#3D62AD;" d="M263,190.8c0,0-2.6,1.5-5.3,0.2c-2.8-1.2-0.9-6.1,1.8-5.2c2.7,1,4,3.7,4,3.7S263.9,190.4,263,190.8z
		"/>
	<path style="fill:none;stroke:#3D62AD;stroke-width:2.6983;stroke-miterlimit:10;" d="M202.7,147.5c-1.8,1.9-3.1,4.4-2.8,6.1
		c0.4,2.5,2.6,5.8,10.7,1.4c9.4-5.1,10.3-19.3,9.6-19.3s-8.8-2.4-19.1,2.4c-12.1,5.6-2.5,12.9-2.5,12.9s-8.8,6.3-6.2,12"/>
	<path style="fill:none;stroke:#3D62AD;stroke-width:2.6983;stroke-miterlimit:10;" d="M160.5,147.6c1.3,2.2,3.4,4.2,5.1,4.5
		c2.5,0.4,6.3-0.8,4.4-9.9c-2.3-10.5-15.6-15.4-15.8-14.7c-0.2,0.7-4.8,7.8-3.1,19c2,13.2,11.6,6.1,11.6,6.1s3.6,10.2,9.7,9.4"/>
	<path style="fill:none;stroke:#3D62AD;stroke-width:2.6983;stroke-miterlimit:10;" d="M147.9,189.1c2.5-0.7,4.9-2.2,5.6-3.8
		c1-2.3,0.8-6.3-8.5-6.7c-10.7-0.4-18.8,11.3-18.2,11.7c0.6,0.4,6.3,6.6,17.6,7.8c13.2,1.3,8.8-9.8,8.8-9.8s10.8-0.9,11.5-7.1"/>
	<path style="fill:none;stroke:#3D62AD;stroke-width:2.6983;stroke-miterlimit:10;" d="M163,229.1c1.8-1.9,3.1-4.4,2.8-6.1
		c-0.4-2.5-2.6-5.8-10.7-1.4c-9.4,5.1-10.3,19.3-9.6,19.3c0.7,0,8.8,2.4,19.1-2.4c12.1-5.6,2.5-12.9,2.5-12.9s8.8-6.3,6.2-12"/>
	<path style="fill:none;stroke:#3D62AD;stroke-width:2.6983;stroke-miterlimit:10;" d="M205.6,230.4c-1.4-2.1-3.6-4-5.3-4.2
		c-2.5-0.2-6.3,1.2-3.8,10.1c2.8,10.3,16.4,14.5,16.6,13.8c0.2-0.7,4.4-8,2.1-19.1c-2.7-13-11.9-5.4-11.9-5.4s-4.1-10-10.2-8.9"/>
	<path style="fill:none;stroke:#3D62AD;stroke-width:2.6983;stroke-miterlimit:10;" d="M219.3,190.2c-2.6,0-5.4,0.8-6.4,2.1
		c-1.6,1.9-2.5,5.9,6.3,8.8c10.2,3.4,21.2-5.6,20.7-6.2c-0.5-0.5-4.2-8.1-14.8-12.4c-12.3-5-11.1,7-11.1,7s-10.6-2.1-13,3.6"/>
</g>
<g id="ajrakh_4">
</g>
</svg>
