<?xml version="1.0" encoding="utf-8"?>
<!-- Generator: Adobe Illustrator 19.2.0, SVG Export Plug-In . SVG Version: 6.00 Build 0)  -->
<svg version="1.0" xmlns="http://www.w3.org/2000/svg" xmlns:xlink="http://www.w3.org/1999/xlink" x="0px" y="0px"
	 viewBox="0 0 366.1 367" style="enable-background:new 0 0 366.1 367;" xml:space="preserve">
<g id="ajrakh_1">
</g>
<g id="ajrakh_2">
</g>
<g id="ajrakh_3">
	
		<ellipse transform="matrix(0.9994 -3.332774e-02 3.332774e-02 0.9994 -2.2828 6.0972)" style="fill:#3D62AD;" cx="181.8" cy="71.5" rx="2.3" ry="2.3"/>
	<path style="fill:#3D62AD;" d="M180.1,74.7c0,0,0.6,2.9-1.4,5.2s-6.1-1-4.3-3.3s4.7-2.7,4.7-2.7S179.9,73.6,180.1,74.7z"/>
	<path style="fill:#3D62AD;" d="M184.2,74.2c0,0,3,0.3,4.5,3c1.5,2.6-2.9,5.5-4.5,3.1c-1.6-2.4-1.1-5.3-1.1-5.3S183.2,74,184.2,74.2
		z"/>
	<path style="fill:#3D62AD;" d="M185.1,70.1c0,0,1.2-2.7,4.2-3.3s4.3,4.4,1.5,5.3c-2.8,0.8-5.4-0.6-5.4-0.6S184.6,71,185.1,70.1z"/>
	<path style="fill:#3D62AD;" d="M181.4,68c0,0-2.2-2-1.9-5c0.3-3,5.5-2.7,5.5,0.2c-0.1,2.9-2.3,4.9-2.3,4.9S182.2,68.8,181.4,68z"/>
	<path style="fill:#3D62AD;" d="M178.3,70.8c0,0-2.6,1.5-5.3,0.2c-2.8-1.2-0.9-6.1,1.8-5.2c2.7,1,4,3.7,4,3.7S179.3,70.4,178.3,70.8
		z"/>
	
		<ellipse transform="matrix(0.9994 -3.332774e-02 3.332774e-02 0.9994 -6.054 2.3204)" style="fill:#3D62AD;" cx="66.6" cy="182.8" rx="2.3" ry="2.3"/>
	<path style="fill:#3D62AD;" d="M64.9,185.9c0,0,0.6,2.9-1.4,5.2c-2,2.2-6.1-1-4.3-3.3c1.8-2.3,4.7-2.7,4.7-2.7
		S64.7,184.9,64.9,185.9z"/>
	<path style="fill:#3D62AD;" d="M69.1,185.4c0,0,3,0.3,4.5,3c1.5,2.6-2.9,5.5-4.5,3.1c-1.6-2.4-1.1-5.3-1.1-5.3S68,185.2,69.1,185.4
		z"/>
	<path style="fill:#3D62AD;" d="M69.9,181.3c0,0,1.2-2.7,4.2-3.3s4.3,4.4,1.5,5.3c-2.8,0.8-5.4-0.6-5.4-0.6S69.4,182.2,69.9,181.3z"
		/>
	<path style="fill:#3D62AD;" d="M66.3,179.2c0,0-2.2-2-1.9-5s5.5-2.7,5.5,0.2s-2.3,4.9-2.3,4.9S67,180,66.3,179.2z"/>
	<path style="fill:#3D62AD;" d="M63.1,182.1c0,0-2.6,1.5-5.3,0.2c-2.8-1.2-0.9-6.1,1.8-5.2c2.7,1,4,3.7,4,3.7S64.1,181.6,63.1,182.1
		z"/>
	
		<ellipse transform="matrix(0.9994 -3.332774e-02 3.332774e-02 0.9994 -9.8233 6.2174)" style="fill:#3D62AD;" cx="181.6" cy="297.8" rx="2.3" ry="2.3"/>
	<path style="fill:#3D62AD;" d="M179.9,300.9c0,0,0.6,2.9-1.4,5.2c-2,2.2-6.1-1-4.3-3.3c1.8-2.3,4.7-2.7,4.7-2.7
		S179.8,299.9,179.9,300.9z"/>
	<path style="fill:#3D62AD;" d="M184.1,300.5c0,0,3,0.3,4.5,3c1.5,2.6-2.9,5.5-4.5,3.1s-1.1-5.3-1.1-5.3S183,300.3,184.1,300.5z"/>
	<path style="fill:#3D62AD;" d="M184.9,296.3c0,0,1.2-2.7,4.2-3.3c3-0.6,4.3,4.4,1.5,5.3c-2.8,0.8-5.4-0.6-5.4-0.6
		S184.4,297.3,184.9,296.3z"/>
	<path style="fill:#3D62AD;" d="M181.3,294.2c0,0-2.2-2-1.9-5c0.3-3,5.5-2.7,5.5,0.2c-0.1,2.9-2.3,4.9-2.3,4.9S182,295,181.3,294.2z
		"/>
	<path style="fill:#3D62AD;" d="M178.2,297.1c0,0-2.6,1.5-5.3,0.2c-2.8-1.2-0.9-6.1,1.8-5.2c2.7,1,4,3.7,4,3.7
		S179.1,296.6,178.2,297.1z"/>
	
		<ellipse transform="matrix(0.9994 -3.332774e-02 3.332774e-02 0.9994 -5.8998 9.8391)" style="fill:#3D62AD;" cx="292.2" cy="181.9" rx="2.3" ry="2.3"/>
	<path style="fill:#3D62AD;" d="M290.5,185c0,0,0.6,2.9-1.4,5.2c-2,2.2-6.1-1-4.3-3.3s4.7-2.7,4.7-2.7S290.4,184,290.5,185z"/>
	<path style="fill:#3D62AD;" d="M294.7,184.6c0,0,3,0.3,4.5,3c1.5,2.6-2.9,5.5-4.5,3.1c-1.6-2.4-1.1-5.3-1.1-5.3
		S293.6,184.4,294.7,184.6z"/>
	<path style="fill:#3D62AD;" d="M295.5,180.5c0,0,1.2-2.7,4.2-3.3c3-0.6,4.3,4.4,1.5,5.3c-2.8,0.8-5.4-0.6-5.4-0.6
		S295,181.4,295.5,180.5z"/>
	<path style="fill:#3D62AD;" d="M291.9,178.4c0,0-2.2-2-1.9-5c0.3-3,5.5-2.7,5.5,0.2c-0.1,2.9-2.3,4.9-2.3,4.9
		S292.6,179.1,291.9,178.4z"/>
	<path style="fill:#3D62AD;" d="M288.8,181.2c0,0-2.6,1.5-5.3,0.2c-2.8-1.2-0.9-6.1,1.8-5.2c2.7,1,4,3.7,4,3.7
		S289.7,180.7,288.8,181.2z"/>
	
		<ellipse transform="matrix(0.8417 -0.54 0.54 0.8417 -19.3687 195.0459)" style="fill:#3D62AD;" cx="322.9" cy="130.6" rx="2.3" ry="2.3"/>
	<path style="fill:#3D62AD;" d="M319.4,130.7c0,0-2.2,2-5.2,1.4s-2.2-5.8,0.7-5.4c2.9,0.3,4.7,2.7,4.7,2.7S320.2,130,319.4,130.7z"
		/>
	<path style="fill:#3D62AD;" d="M321.9,134.1c0,0,1.2,2.7-0.3,5.3c-1.5,2.6-6.2,0.3-5-2.3c1.2-2.6,4-3.6,4-3.6
		S321.5,133.1,321.9,134.1z"/>
	<path style="fill:#3D62AD;" d="M325.9,132.7c0,0,3-0.3,5,1.9c2,2.2-1.6,6-3.7,4s-2.2-5-2.2-5S324.8,132.7,325.9,132.7z"/>
	<path style="fill:#3D62AD;" d="M325.8,128.5c0,0,0.6-2.9,3.4-4.2s5.2,3.4,2.7,4.8s-5.4,0.6-5.4,0.6S325.5,129.5,325.8,128.5z"/>
	<path style="fill:#3D62AD;" d="M321.8,127.2c0,0-2.6-1.5-2.9-4.5c-0.3-3,4.8-3.9,5.4-1c0.6,2.8-1.1,5.3-1.1,5.3
		S322.6,127.8,321.8,127.2z"/>
	
		<ellipse transform="matrix(0.8417 -0.54 0.54 0.8417 -80.9013 212.9857)" style="fill:#3D62AD;" cx="322.7" cy="244.5" rx="2.3" ry="2.3"/>
	<path style="fill:#3D62AD;" d="M319.2,244.6c0,0-2.2,2-5.2,1.4s-2.2-5.8,0.7-5.4c2.9,0.3,4.7,2.7,4.7,2.7S320,243.9,319.2,244.6z"
		/>
	<path style="fill:#3D62AD;" d="M321.7,248c0,0,1.2,2.7-0.3,5.3s-6.2,0.3-5-2.3s4-3.6,4-3.6S321.4,247,321.7,248z"/>
	<path style="fill:#3D62AD;" d="M325.7,246.6c0,0,3-0.3,5,1.9c2,2.2-1.6,6-3.7,4s-2.2-5-2.2-5S324.6,246.6,325.7,246.6z"/>
	<path style="fill:#3D62AD;" d="M325.6,242.4c0,0,0.6-2.9,3.4-4.2s5.2,3.4,2.7,4.8s-5.4,0.6-5.4,0.6S325.3,243.4,325.6,242.4z"/>
	<path style="fill:#3D62AD;" d="M321.6,241.1c0,0-2.6-1.5-2.9-4.5c-0.3-3,4.8-3.9,5.4-1c0.6,2.8-1.1,5.3-1.1,5.3
		S322.5,241.7,321.6,241.1z"/>
	
		<ellipse transform="matrix(0.8417 -0.54 0.54 0.8417 -137.1727 181.046)" style="fill:#3D62AD;" cx="240.1" cy="324.4" rx="2.3" ry="2.3"/>
	<path style="fill:#3D62AD;" d="M236.6,324.6c0,0-2.2,2-5.2,1.4s-2.2-5.8,0.7-5.4s4.7,2.7,4.7,2.7S237.4,323.9,236.6,324.6z"/>
	<path style="fill:#3D62AD;" d="M239.1,327.9c0,0,1.2,2.7-0.3,5.3c-1.5,2.6-6.2,0.3-5-2.3c1.2-2.6,4-3.6,4-3.6
		S238.7,326.9,239.1,327.9z"/>
	<path style="fill:#3D62AD;" d="M243.1,326.6c0,0,3-0.3,5,1.9s-1.6,6-3.7,4c-2.1-2-2.2-5-2.2-5S242,326.6,243.1,326.6z"/>
	<path style="fill:#3D62AD;" d="M243,322.4c0,0,0.6-2.9,3.4-4.2c2.8-1.3,5.2,3.4,2.7,4.8c-2.5,1.4-5.4,0.6-5.4,0.6
		S242.7,323.4,243,322.4z"/>
	<path style="fill:#3D62AD;" d="M239,321.1c0,0-2.6-1.5-2.9-4.5c-0.3-3,4.8-3.9,5.4-1s-1.1,5.3-1.1,5.3S239.9,321.7,239,321.1z"/>
	
		<ellipse transform="matrix(0.8417 -0.54 0.54 0.8417 -155.8652 119.3865)" style="fill:#3D62AD;" cx="125.7" cy="325.5" rx="2.3" ry="2.3"/>
	<path style="fill:#3D62AD;" d="M122.1,325.6c0,0-2.2,2-5.2,1.4s-2.2-5.8,0.7-5.4c2.9,0.3,4.7,2.7,4.7,2.7S122.9,325,122.1,325.6z"
		/>
	<path style="fill:#3D62AD;" d="M124.6,329c0,0,1.2,2.7-0.3,5.3c-1.5,2.6-6.2,0.3-5-2.3s4-3.6,4-3.6S124.3,328,124.6,329z"/>
	<path style="fill:#3D62AD;" d="M128.6,327.6c0,0,3-0.3,5,1.9s-1.6,6-3.7,4c-2.1-2-2.2-5-2.2-5S127.5,327.7,128.6,327.6z"/>
	<path style="fill:#3D62AD;" d="M128.5,323.4c0,0,0.6-2.9,3.4-4.2c2.8-1.3,5.2,3.4,2.7,4.8c-2.5,1.4-5.4,0.6-5.4,0.6
		S128.2,324.4,128.5,323.4z"/>
	<path style="fill:#3D62AD;" d="M124.5,322.2c0,0-2.6-1.5-2.9-4.5c-0.3-3,4.8-3.9,5.4-1c0.6,2.8-1.1,5.3-1.1,5.3
		S125.4,322.8,124.5,322.2z"/>
	
		<ellipse transform="matrix(0.8417 -0.54 0.54 0.8417 -124.7044 61.5041)" style="fill:#3D62AD;" cx="42.5" cy="243.4" rx="2.3" ry="2.3"/>
	<path style="fill:#3D62AD;" d="M39,243.5c0,0-2.2,2-5.2,1.4c-3-0.6-2.2-5.8,0.7-5.4c2.9,0.3,4.7,2.7,4.7,2.7S39.8,242.9,39,243.5z"
		/>
	<path style="fill:#3D62AD;" d="M41.5,246.9c0,0,1.2,2.7-0.3,5.3c-1.5,2.6-6.2,0.3-5-2.3s4-3.6,4-3.6S41.1,245.9,41.5,246.9z"/>
	<path style="fill:#3D62AD;" d="M45.5,245.5c0,0,3-0.3,5,1.9s-1.6,6-3.7,4s-2.2-5-2.2-5S44.4,245.6,45.5,245.5z"/>
	<path style="fill:#3D62AD;" d="M45.4,241.3c0,0,0.6-2.9,3.4-4.2s5.2,3.4,2.7,4.8c-2.5,1.4-5.4,0.6-5.4,0.6S45.1,242.3,45.4,241.3z"
		/>
	<path style="fill:#3D62AD;" d="M41.4,240.1c0,0-2.6-1.5-2.9-4.5c-0.3-3,4.8-3.9,5.4-1c0.6,2.8-1.1,5.3-1.1,5.3
		S42.3,240.7,41.4,240.1z"/>
	
		<ellipse transform="matrix(0.8417 -0.54 0.54 0.8417 -62.6798 43.0111)" style="fill:#3D62AD;" cx="42" cy="128.4" rx="2.3" ry="2.3"/>
	<path style="fill:#3D62AD;" d="M38.4,128.5c0,0-2.2,2-5.2,1.4c-3-0.6-2.2-5.8,0.7-5.4s4.7,2.7,4.7,2.7S39.3,127.9,38.4,128.5z"/>
	<path style="fill:#3D62AD;" d="M41,131.9c0,0,1.2,2.7-0.3,5.3s-6.2,0.3-5-2.3s4-3.6,4-3.6S40.6,130.9,41,131.9z"/>
	<path style="fill:#3D62AD;" d="M45,130.5c0,0,3-0.3,5,1.9s-1.6,6-3.7,4s-2.2-5-2.2-5S43.9,130.6,45,130.5z"/>
	<path style="fill:#3D62AD;" d="M44.9,126.3c0,0,0.6-2.9,3.4-4.2c2.8-1.3,5.2,3.4,2.7,4.8c-2.5,1.4-5.4,0.6-5.4,0.6
		S44.6,127.3,44.9,126.3z"/>
	<path style="fill:#3D62AD;" d="M40.9,125.1c0,0-2.6-1.5-2.9-4.5c-0.3-3,4.8-3.9,5.4-1c0.6,2.8-1.1,5.3-1.1,5.3
		S41.7,125.7,40.9,125.1z"/>
	
		<ellipse transform="matrix(0.8417 -0.54 0.54 0.8417 -3.3516 74.0546)" style="fill:#3D62AD;" cx="124.6" cy="42.7" rx="2.3" ry="2.3"/>
	<path style="fill:#3D62AD;" d="M121,42.9c0,0-2.2,2-5.2,1.4c-3-0.6-2.2-5.8,0.7-5.4c2.9,0.3,4.7,2.7,4.7,2.7S121.9,42.2,121,42.9z"
		/>
	<path style="fill:#3D62AD;" d="M123.6,46.2c0,0,1.2,2.7-0.3,5.3c-1.5,2.6-6.2,0.3-5-2.3c1.2-2.6,4-3.6,4-3.6S123.2,45.3,123.6,46.2
		z"/>
	<path style="fill:#3D62AD;" d="M127.6,44.9c0,0,3-0.3,5,1.9c2,2.2-1.6,6-3.7,4c-2.1-2-2.2-5-2.2-5S126.5,44.9,127.6,44.9z"/>
	<path style="fill:#3D62AD;" d="M127.5,40.7c0,0,0.6-2.9,3.4-4.2c2.8-1.3,5.2,3.4,2.7,4.8c-2.5,1.4-5.4,0.6-5.4,0.6
		S127.2,41.7,127.5,40.7z"/>
	<path style="fill:#3D62AD;" d="M123.5,39.4c0,0-2.6-1.5-2.9-4.5s4.8-3.9,5.4-1c0.6,2.8-1.1,5.3-1.1,5.3S124.3,40,123.5,39.4z"/>
	
		<ellipse transform="matrix(0.8417 -0.54 0.54 0.8417 15.3068 136.6438)" style="fill:#3D62AD;" cx="240.7" cy="42.2" rx="2.3" ry="2.3"/>
	<path style="fill:#3D62AD;" d="M237.1,42.4c0,0-2.2,2-5.2,1.4s-2.2-5.8,0.7-5.4c2.9,0.3,4.7,2.7,4.7,2.7S237.9,41.7,237.1,42.4z"/>
	<path style="fill:#3D62AD;" d="M239.6,45.7c0,0,1.2,2.7-0.3,5.3c-1.5,2.6-6.2,0.3-5-2.3c1.2-2.6,4-3.6,4-3.6S239.3,44.7,239.6,45.7
		z"/>
	<path style="fill:#3D62AD;" d="M243.6,44.3c0,0,3-0.3,5,1.9c2,2.2-1.6,6-3.7,4c-2.1-2-2.2-5-2.2-5S242.6,44.4,243.6,44.3z"/>
	<path style="fill:#3D62AD;" d="M243.5,40.1c0,0,0.6-2.9,3.4-4.2s5.2,3.4,2.7,4.8c-2.5,1.4-5.4,0.6-5.4,0.6S243.2,41.2,243.5,40.1z"
		/>
	<path style="fill:#3D62AD;" d="M239.5,38.9c0,0-2.6-1.5-2.9-4.5c-0.3-3,4.8-3.9,5.4-1c0.6,2.8-1.1,5.3-1.1,5.3
		S240.4,39.5,239.5,38.9z"/>
</g>
<g id="ajrakh_4">
	<polygon style="fill:none;stroke:#3D62AD;stroke-width:4;stroke-miterlimit:10;" points="109.2,7 255.8,6.8 359.6,110.3 
		359.8,256.9 256.3,360.7 109.7,360.9 5.9,257.4 5.7,110.8 	"/>
	<ellipse style="fill:none;stroke:#3D62AD;stroke-width:4;stroke-miterlimit:10;" cx="180.8" cy="186.1" rx="57" ry="57.5"/>
	<ellipse style="fill:none;stroke:#3D62AD;stroke-width:4;stroke-miterlimit:10;" cx="180.8" cy="186.1" rx="32.1" ry="32.4"/>
	<ellipse style="fill:#3D62AD;" cx="180.6" cy="186" rx="8.3" ry="8.3"/>
	
		<ellipse transform="matrix(0.4871 -0.8733 0.8733 0.4871 -32.6923 225.1554)" style="fill:#3D62AD;" cx="175.4" cy="140.4" rx="5.2" ry="5.2"/>
	
		<ellipse transform="matrix(0.9999 -1.480726e-02 1.480726e-02 0.9999 -2.1893 2.2857)" style="fill:#3D62AD;" cx="153.3" cy="149" rx="5.2" ry="5.2"/>
	
		<ellipse transform="matrix(0.8585 -0.5128 0.5128 0.8585 -66.2838 94.6667)" style="fill:#3D62AD;" cx="138.4" cy="167.5" rx="5.2" ry="5.2"/>
	
		<ellipse transform="matrix(0.4871 -0.8733 0.8733 0.4871 -97.562 215.6182)" style="fill:#3D62AD;" cx="134.8" cy="190.9" rx="5.2" ry="5.2"/>
	
		<ellipse transform="matrix(0.9999 -1.480726e-02 1.480726e-02 0.9999 -3.1377 2.1463)" style="fill:#3D62AD;" cx="143.4" cy="213" rx="5.2" ry="5.2"/>
	
		<ellipse transform="matrix(0.8585 -0.5128 0.5128 0.8585 -93.9169 115.216)" style="fill:#3D62AD;" cx="161.8" cy="227.8" rx="5.2" ry="5.2"/>
	
		<ellipse transform="matrix(0.4871 -0.8733 0.8733 0.4871 -107.0992 280.4879)" style="fill:#3D62AD;" cx="185.3" cy="231.4" rx="5.2" ry="5.2"/>
	
		<ellipse transform="matrix(0.9999 -1.480726e-02 1.480726e-02 0.9999 -3.2771 3.0947)" style="fill:#3D62AD;" cx="207.3" cy="222.9" rx="5.2" ry="5.2"/>
	
		<ellipse transform="matrix(0.8585 -0.5128 0.5128 0.8585 -73.3677 142.849)" style="fill:#3D62AD;" cx="222.2" cy="204.4" rx="5.2" ry="5.2"/>
	
		<ellipse transform="matrix(0.4871 -0.8733 0.8733 0.4871 -42.2295 290.0252)" style="fill:#3D62AD;" cx="225.8" cy="181" rx="5.2" ry="5.2"/>
	
		<ellipse transform="matrix(0.9999 -1.480726e-02 1.480726e-02 0.9999 -2.3287 3.2342)" style="fill:#3D62AD;" cx="217.2" cy="158.9" rx="5.2" ry="5.2"/>
	
		<ellipse transform="matrix(0.8585 -0.5128 0.5128 0.8585 -45.7346 122.2998)" style="fill:#3D62AD;" cx="198.8" cy="144" rx="5.2" ry="5.2"/>
	
		<rect x="164.6" y="170.7" transform="matrix(0.7071 0.7071 -0.7071 0.7071 185.1914 -73.1016)" style="fill:none;stroke:#3D62AD;stroke-width:4;stroke-miterlimit:10;" width="32.5" height="32.5"/>
	<polygon style="fill:none;stroke:#3D62AD;stroke-width:4;stroke-miterlimit:10;" points="118.1,28.3 247,28.1 338.3,119.2 
		338.5,248.1 247.4,339.4 118.5,339.6 27.2,248.5 27,119.6 	"/>
	
		<polygon style="fill:none;stroke:#3D62AD;stroke-width:5.6008;stroke-linecap:round;stroke-linejoin:round;stroke-miterlimit:10;stroke-dasharray:4.1518,12.4555;" points="
		114,18.5 251,18.4 348,115.1 348.2,252.1 251.5,349.1 114.4,349.3 17.4,252.6 17.3,115.5 	"/>
	<g>
		<path style="fill:none;stroke:#3D62AD;stroke-width:4;stroke-miterlimit:10;" d="M267.6,263.1c0,0,12-6,17.1-39.6
			c1.5-10.1,6.9-19.4,15.5-24.9c4.6-2.9,10.5-5.2,18.1-5.8c0,0-7.8,13.9-8.6,25.7c-1,16.4-4.1,30.9-9.3,36.9
			C300.4,255.3,288.2,270,267.6,263.1z"/>
		<path style="fill:none;stroke:#3D62AD;stroke-width:4;stroke-miterlimit:10;" d="M262.6,269.3c0,0-5.9,12-39.6,17.2
			c-10.1,1.6-19.4,7-24.8,15.6c-2.9,4.6-5.2,10.5-5.8,18.1c0,0,13.9-7.9,25.7-8.7c16.4-1.1,30.9-4.2,36.8-9.4
			C254.9,302.1,269.6,289.9,262.6,269.3z"/>
		<path style="fill:none;stroke:#3D62AD;stroke-width:4;stroke-miterlimit:10;" d="M182,334.5c0,0,10-4.9,10.5-15.2"/>
		<path style="fill:none;stroke:#3D62AD;stroke-width:4;stroke-miterlimit:10;" d="M335.6,183.1c0,0-5.5,8.9-17.9,9.7"/>
	</g>
	<g>
		<path style="fill:none;stroke:#3D62AD;stroke-width:4;stroke-miterlimit:10;" d="M96.1,262.8c0,0-12-6-17.1-39.6
			c-1.5-10.1-6.9-19.4-15.5-24.9c-4.6-2.9-10.5-5.2-18.1-5.8c0,0,7.8,13.9,8.6,25.7c1,16.4,4.1,30.9,9.3,36.9
			C63.4,255,75.5,269.8,96.1,262.8z"/>
		<path style="fill:none;stroke:#3D62AD;stroke-width:4;stroke-miterlimit:10;" d="M101.1,269c0,0,5.9,12,39.6,17.2
			c10.1,1.6,19.4,7,24.8,15.6c2.9,4.6,5.2,10.5,5.8,18.1c0,0-13.9-7.9-25.7-8.7c-16.4-1.1-30.9-4.2-36.8-9.4
			C108.8,301.8,94.1,289.6,101.1,269z"/>
		<path style="fill:none;stroke:#3D62AD;stroke-width:4;stroke-miterlimit:10;" d="M181.7,334.2c0,0-10-4.9-10.5-15.2"/>
		<path style="fill:none;stroke:#3D62AD;stroke-width:4;stroke-miterlimit:10;" d="M28.1,182.8c0,0,5.5,8.9,17.9,9.7"/>
	</g>
	<g>
		<path style="fill:none;stroke:#3D62AD;stroke-width:4;stroke-miterlimit:10;" d="M267.3,102c0,0,12,6,17.1,39.6
			c1.5,10.1,6.9,19.4,15.5,24.9c4.6,2.9,10.5,5.2,18.1,5.8c0,0-7.8-13.9-8.6-25.7c-1-16.4-4.1-30.9-9.3-36.9
			C300.1,109.9,287.9,95.1,267.3,102z"/>
		<path style="fill:none;stroke:#3D62AD;stroke-width:4;stroke-miterlimit:10;" d="M262.3,95.8c0,0-5.9-12-39.6-17.2
			c-10.1-1.6-19.4-7-24.8-15.6c-2.9-4.6-5.2-10.5-5.8-18.1c0,0,13.9,7.9,25.7,8.7c16.4,1.1,30.9,4.2,36.8,9.4
			C254.6,63,269.3,75.3,262.3,95.8z"/>
		<path style="fill:none;stroke:#3D62AD;stroke-width:4;stroke-miterlimit:10;" d="M181.7,30.7c0,0,10,4.9,10.5,15.2"/>
		<path style="fill:none;stroke:#3D62AD;stroke-width:4;stroke-miterlimit:10;" d="M335.3,182.1c0,0-5.5-8.9-17.9-9.7"/>
	</g>
	<g>
		<path style="fill:none;stroke:#3D62AD;stroke-width:4;stroke-miterlimit:10;" d="M95.8,102.3c0,0-12,6-17.1,39.6
			c-1.5,10.1-6.9,19.4-15.5,24.9c-4.6,2.9-10.5,5.2-18.1,5.8c0,0,7.8-13.9,8.6-25.7c1-16.4,4.1-30.9,9.3-36.9
			C63.1,110.1,75.2,95.4,95.8,102.3z"/>
		<path style="fill:none;stroke:#3D62AD;stroke-width:4;stroke-miterlimit:10;" d="M100.8,96.1c0,0,5.9-12,39.6-17.2
			c10.1-1.6,19.4-7,24.8-15.6c2.9-4.6,5.2-10.5,5.8-18.1c0,0-13.9,7.9-25.7,8.7c-16.4,1.1-30.9,4.2-36.8,9.4
			C108.5,63.3,93.8,75.5,100.8,96.1z"/>
		<path style="fill:none;stroke:#3D62AD;stroke-width:4;stroke-miterlimit:10;" d="M181.4,31c0,0-10,4.9-10.5,15.2"/>
		<path style="fill:none;stroke:#3D62AD;stroke-width:4;stroke-miterlimit:10;" d="M27.8,182.4c0,0,5.5-8.9,17.9-9.7"/>
	</g>
	<path style="fill:none;stroke:#3D62AD;stroke-width:4;stroke-miterlimit:10;" d="M172.4,129.1c0,0-10.4-11.6-10.1-23.7
		c0.4-12.1,15.5-11.6,17.3-4.7c2.9,11.1,2.5,20.9,0.4,28C174.1,130.3,172.4,129.1,172.4,129.1z"/>
	<path style="fill:none;stroke:#3D62AD;stroke-width:4;stroke-miterlimit:10;" d="M155.1,134.5c0,0-13.5-7.8-16.9-19.4
		c-3.4-11.6,11.1-15.8,15-9.8c6.2,9.7,8.8,19.1,9.1,26.5C157.1,135.1,155.1,134.5,155.1,134.5z"/>
	<path style="fill:none;stroke:#3D62AD;stroke-width:4;stroke-miterlimit:10;" d="M140.3,144.9c0,0-15.3-3.3-22.1-13.2
		c-6.8-10,5.7-18.4,11.2-13.9c8.9,7.3,14.3,15.4,16.8,22.4C142.3,144.9,140.3,144.9,140.3,144.9z"/>
	<path style="fill:none;stroke:#3D62AD;stroke-width:4;stroke-miterlimit:10;" d="M129.4,159.4c0,0-15.5,1.6-25.1-5.8
		s-0.3-19.3,6.4-16.7c10.7,4.2,18.4,10.2,22.9,16.1C131.3,158.7,129.4,159.4,129.4,159.4z"/>
	<path style="fill:none;stroke:#3D62AD;stroke-width:4;stroke-miterlimit:10;" d="M123.5,176.5c0,0-14.3,6.3-25.7,2.3
		s-6.2-18.3,0.9-17.9c11.4,0.7,20.6,4.1,26.8,8.3C125.2,175.3,123.5,176.5,123.5,176.5z"/>
	<path style="fill:none;stroke:#3D62AD;stroke-width:4;stroke-miterlimit:10;" d="M123.2,194.6c0,0-11.6,10.4-23.7,10.1
		s-11.6-15.5-4.7-17.3c11.1-2.9,20.9-2.5,28-0.4C124.4,192.9,123.2,194.6,123.2,194.6z"/>
	<path style="fill:none;stroke:#3D62AD;stroke-width:4;stroke-miterlimit:10;" d="M128.5,212c0,0-7.8,13.5-19.4,16.9
		c-11.6,3.4-15.8-11.1-9.8-15c9.7-6.2,19.1-8.8,26.5-9.1C129.1,210,128.5,212,128.5,212z"/>
	<path style="fill:none;stroke:#3D62AD;stroke-width:4;stroke-miterlimit:10;" d="M138.9,226.8c0,0-3.3,15.3-13.2,22.1
		s-18.4-5.7-13.9-11.2c7.3-8.9,15.4-14.3,22.4-16.8C138.9,224.7,138.9,226.8,138.9,226.8z"/>
	<path style="fill:none;stroke:#3D62AD;stroke-width:4;stroke-miterlimit:10;" d="M153.4,237.7c0,0,1.6,15.5-5.8,25.1
		c-7.4,9.6-19.3,0.3-16.7-6.4c4.2-10.7,10.2-18.4,16.1-22.9C152.8,235.7,153.4,237.7,153.4,237.7z"/>
	<path style="fill:none;stroke:#3D62AD;stroke-width:4;stroke-miterlimit:10;" d="M170.6,243.6c0,0,6.3,14.3,2.3,25.7
		c-4.1,11.4-18.3,6.2-17.9-0.9c0.7-11.4,4.1-20.6,8.3-26.8C169.3,241.9,170.6,243.6,170.6,243.6z"/>
	<path style="fill:none;stroke:#3D62AD;stroke-width:4;stroke-miterlimit:10;" d="M188.7,243.8c0,0,10.4,11.6,10.1,23.7
		c-0.4,12.1-15.5,11.6-17.3,4.7c-2.9-11.1-2.5-20.9-0.4-28C187,242.6,188.7,243.8,188.7,243.8z"/>
	<path style="fill:none;stroke:#3D62AD;stroke-width:4;stroke-miterlimit:10;" d="M206,238.5c0,0,13.5,7.8,16.9,19.4
		c3.4,11.6-11.1,15.8-15,9.8c-6.2-9.7-8.8-19.1-9.1-26.5C204,237.9,206,238.5,206,238.5z"/>
	<path style="fill:none;stroke:#3D62AD;stroke-width:4;stroke-miterlimit:10;" d="M220.8,228.1c0,0,15.3,3.3,22.1,13.2
		c6.8,10-5.7,18.4-11.2,13.9c-8.9-7.3-14.3-15.4-16.8-22.4C218.8,228.1,220.8,228.1,220.8,228.1z"/>
	<path style="fill:none;stroke:#3D62AD;stroke-width:4;stroke-miterlimit:10;" d="M231.7,213.6c0,0,15.5-1.6,25.1,5.8
		c9.6,7.4,0.3,19.3-6.4,16.7c-10.7-4.2-18.4-10.2-22.9-16.1C229.8,214.3,231.7,213.6,231.7,213.6z"/>
	<path style="fill:none;stroke:#3D62AD;stroke-width:4;stroke-miterlimit:10;" d="M237.6,196.5c0,0,14.3-6.3,25.7-2.3
		s6.2,18.3-0.9,17.9c-11.4-0.7-20.6-4.1-26.8-8.3C235.9,197.7,237.6,196.5,237.6,196.5z"/>
	<path style="fill:none;stroke:#3D62AD;stroke-width:4;stroke-miterlimit:10;" d="M237.9,178.4c0,0,11.6-10.4,23.7-10.1
		c12.1,0.4,11.6,15.5,4.7,17.3c-11.1,2.9-20.9,2.5-28,0.4C236.7,180,237.9,178.4,237.9,178.4z"/>
	<path style="fill:none;stroke:#3D62AD;stroke-width:4;stroke-miterlimit:10;" d="M232.6,161c0,0,7.8-13.5,19.4-16.9
		c11.6-3.4,15.8,11.1,9.8,15c-9.7,6.2-19.1,8.8-26.5,9.1C232,163,232.6,161,232.6,161z"/>
	<path style="fill:none;stroke:#3D62AD;stroke-width:4;stroke-miterlimit:10;" d="M222.2,146.2c0,0,3.3-15.3,13.2-22.1
		c10-6.8,18.4,5.7,13.9,11.2c-7.3,8.9-15.4,14.3-22.4,16.8C222.2,148.3,222.2,146.2,222.2,146.2z"/>
	<path style="fill:none;stroke:#3D62AD;stroke-width:4;stroke-miterlimit:10;" d="M207.7,135.3c0,0-1.6-15.5,5.8-25.1
		s19.3-0.3,16.7,6.4c-4.2,10.7-10.2,18.4-16.1,22.9C208.3,137.3,207.7,135.3,207.7,135.3z"/>
	<path style="fill:none;stroke:#3D62AD;stroke-width:4;stroke-miterlimit:10;" d="M190.5,129.4c0,0-6.3-14.3-2.3-25.7
		s18.3-6.2,17.9,0.9c-0.7,11.4-4.1,20.6-8.3,26.8C191.8,131.1,190.5,129.4,190.5,129.4z"/>
</g>
</svg>
