<?xml version="1.0" encoding="utf-8"?>
<!-- Generator: Adobe Illustrator 19.2.0, SVG Export Plug-In . SVG Version: 6.00 Build 0)  -->
<svg version="1.0" xmlns="http://www.w3.org/2000/svg" xmlns:xlink="http://www.w3.org/1999/xlink" x="0px" y="0px"
	 viewBox="0 0 366.1 367" style="enable-background:new 0 0 366.1 367;" xml:space="preserve">
<g id="ajrakh_1">
	<polyline style="fill:none;stroke:#3C61AD;stroke-width:7;stroke-miterlimit:10;" points="201.1,163.1 235.2,128.2 236.5,126.9 	
		"/>
	<line style="fill:none;stroke:#3C61AD;stroke-width:7;stroke-miterlimit:10;" x1="129.8" y1="129.2" x2="166.3" y2="163.2"/>
	<line style="fill:none;stroke:#3C61AD;stroke-width:7;stroke-miterlimit:10;" x1="166.2" y1="198.1" x2="131.8" y2="235.4"/>
	<path style="fill:none;stroke:#3C61AD;stroke-width:7;stroke-miterlimit:10;" d="M200.8,197.8l37.1,37.8v21.9l-70.6,68.7
		c-4,4.7-6.7,9.2-5.7,15.4c1.3,8.4,6.1,18.5,21.7,18c12-0.4,17.8-6.8,19.9-12.7c2.6-7,0.7-15-4.4-20.5l-69.6-70.9l2.6-19.9l-21,0.3
		l-68.7-70.6c-4.7-4-9.2-6.7-15.4-5.7c-8.4,1.3-18.5,6.1-18,21.7c0.4,12,6.8,17.8,12.7,19.9c7,2.6,15,0.7,20.5-4.4l69.7-67.4
		l18.1,0.2l0.4,0l0-21.7l70.6-68.7c4-4.7,6.7-9.2,5.7-15.4c-1.3-8.4-6.1-18.5-21.7-18c-12,0.4-17.8,6.8-19.9,12.7
		c-2.6,7-0.7,15,4.4,20.5l67.4,69.7l0,18.8l21.1,0.3l68.2,72.3c4.7,4,9.2,6.7,15.4,5.7c8.4-1.3,18.5-6.1,18-21.7
		c-0.4-12-6.8-17.8-12.7-19.9c-7-2.6-15-0.7-20.5,4.4L256.5,236l-18.1-0.2"/>
	<rect x="166" y="163" style="fill:none;stroke:#3C61AD;stroke-width:7;stroke-miterlimit:10;" width="35" height="35"/>
	<path style="fill:none;stroke:#3C61AD;stroke-width:7;stroke-miterlimit:10;" d="M208.4,291.7l-49.2-47.9l23.9-23.9l22.9,23.9
		l-58,51.8c-2,1.8-4.3,3.3-6.8,4.3c-10.4,4.2-38.4,11.8-63.2-13.4c0,0-29.3-31.1-12.2-65.6c0.7-1.5,5-7.7,6-8.9l23.1-24.1l27.6-27.8
		l21.2,22.5L121,205.8l-36.3-39.6L67,145.3c0,0-20.2-36.3,11.5-67.5c0,0,25.6-21.2,55.1-14.9c7.7,1.6,14.7,5.4,20.7,10.5l24.5,21.3
		l29.4,27l-23.9,23.9l-22.9-23.9l58-51.8c2-1.8,4.3-3.3,6.8-4.3c10.4-4.2,38.4-11.8,63.2,13.4c0,0,29.3,31.1,12.2,65.6
		c-0.7,1.5-5,7.7-6,8.9l-49.9,52.7l-26.4-23.7l25.5-24.1l25.5,25.3l24.5,25.5c7.4,7.6,11.1,17,12.2,27.6
		c1.5,14.1-0.7,33.6-18.1,50.8c0,0-35.3,31.9-70.6,12.1l0,0C214.7,297.4,211.4,294.7,208.4,291.7z"/>
	
		<rect x="253.7" y="250.1" style="fill:none;stroke:#3C61AD;stroke-width:7.0001;stroke-miterlimit:10;" width="20.4" height="20.4"/>
	<path style="fill:none;stroke:#3C61AD;stroke-width:4.177;stroke-miterlimit:10;" d="M343,188.6L343,188.6c-2.4,2.4-6.2,2.4-8.6,0
		v0c-2.4-2.4-2.4-6.2,0-8.6l0,0c2.4-2.4,6.2-2.4,8.6,0l0,0C345.4,182.3,345.4,186.2,343,188.6z"/>
	<path style="fill:none;stroke:#3C61AD;stroke-width:4.177;stroke-miterlimit:10;" d="M187.1,342.5L187.1,342.5
		c-2.4,2.4-6.2,2.4-8.6,0l0,0c-2.4-2.4-2.4-6.2,0-8.6l0,0c2.4-2.4,6.2-2.4,8.6,0h0C189.5,336.3,189.5,340.1,187.1,342.5z"/>
	<path style="fill:none;stroke:#3C61AD;stroke-width:4.177;stroke-miterlimit:10;" d="M33.1,185L33.1,185c-2.4,2.4-6.2,2.4-8.6,0
		l0,0c-2.4-2.4-2.4-6.2,0-8.6h0c2.4-2.4,6.2-2.4,8.6,0h0C35.5,178.8,35.5,182.6,33.1,185z"/>
	<path style="fill:none;stroke:#3C61AD;stroke-width:4.177;stroke-miterlimit:10;" d="M189.6,31.6L189.6,31.6
		c-2.4,2.4-6.2,2.4-8.6,0l0,0c-2.4-2.4-2.4-6.2,0-8.6l0,0c2.4-2.4,6.2-2.4,8.6,0l0,0C192,25.4,192,29.2,189.6,31.6z"/>
	
		<rect x="91.8" y="250.4" style="fill:none;stroke:#3C61AD;stroke-width:7.0001;stroke-miterlimit:10;" width="20.4" height="20.4"/>
	
		<rect x="254.2" y="93.9" style="fill:none;stroke:#3C61AD;stroke-width:7.0001;stroke-miterlimit:10;" width="20.4" height="20.4"/>
	<rect x="93.5" y="93.9" style="fill:none;stroke:#3C61AD;stroke-width:7.0001;stroke-miterlimit:10;" width="20.4" height="20.4"/>
</g>
<g id="ajrakh_2">
</g>
<g id="ajrakh_3">
</g>
<g id="ajrakh_4">
</g>
</svg>
